<?xml version="1.0" encoding="UTF-8"?>
<svg xmlns="http://www.w3.org/2000/svg" xmlns:xlink="http://www.w3.org/1999/xlink" width="30px" height="30px" viewBox="0 0 30 30" version="1.1">
<g id="surface1">
<path style=" stroke:none;fill-rule:nonzero;fill:rgb(0%,0%,35.686275%);fill-opacity:1;" d="M 5.859375 1.40625 L 24.140625 1.40625 C 26.859375 1.40625 29.0625 3.609375 29.0625 6.328125 L 29.0625 23.671875 C 29.0625 26.390625 26.859375 28.59375 24.140625 28.59375 L 5.859375 28.59375 C 3.140625 28.59375 0.9375 26.390625 0.9375 23.671875 L 0.9375 6.328125 C 0.9375 3.609375 3.140625 1.40625 5.859375 1.40625 Z M 5.859375 1.40625 "/>
<path style=" stroke:none;fill-rule:nonzero;fill:rgb(60%,60%,100%);fill-opacity:1;" d="M 7.03125 21.429688 L 7.03125 8.671875 C 4.636719 10.613281 1.121094 10.246094 -0.820312 7.851562 C -2.761719 5.457031 -2.394531 1.941406 0 0 C 8.113281 8.515625 9.234375 8.4375 10.695312 8.4375 C 12.421875 8.4375 13.6875 8.796875 14.492188 9.570312 C 11.851562 10.929688 8.605469 9.890625 7.246094 7.246094 C 5.886719 4.605469 6.929688 1.359375 9.570312 0 C 9.570312 1.414062 9.070312 2.464844 8.070312 3.148438 C 7.070312 3.835938 7.859375 8.328125 10.429688 16.621094 L 9.375 16.640625 L 9.375 21.414062 C 3.460938 21.359375 -1.289062 16.519531 -1.234375 10.609375 C -1.179688 4.695312 3.660156 -0.0546875 9.570312 0 L 7.179688 0 C 7.082031 21.5625 7.03125 21.519531 7.03125 21.429688 Z M 9.375 10.269531 L 9.375 14.882812 C 9.375 14.882812 9.910156 14.863281 10.546875 14.863281 C 11.386719 14.863281 12.0625 14.675781 12.582031 14.308594 C 13.097656 13.941406 13.359375 13.335938 13.359375 12.496094 C 13.359375 11.757812 13.132812 11.191406 12.675781 10.789062 C 12.21875 10.390625 11.558594 10.191406 10.695312 10.195312 C 10.484375 10.195312 10.273438 10.195312 10.070312 10.203125 C 9.863281 10.214844 9.695312 10.214844 9.5625 10.214844 C 9.429688 10.214844 9.359375 10.210938 9.375 10.269531 Z M 17.460938 12.1875 L 19.453125 12.1875 C 16.085938 14.742188 11.289062 14.082031 8.734375 10.71875 C 6.179688 7.351562 6.839844 2.554688 10.203125 0 C 10.957031 -0.972656 11.882812 -1.40625 13.117188 -1.40625 C 13.503906 2.605469 10.566406 6.167969 6.558594 6.558594 C 2.546875 6.945312 -1.019531 4.011719 -1.40625 0 L -1.40625 2.070312 C -1.40625 2.171875 -1.457031 2.21875 -1.5625 2.207031 C -2.691406 2.140625 -3.585938 2.289062 -4.234375 2.9375 C -5.046875 0.957031 -4.097656 -1.304688 -2.117188 -2.117188 C -0.136719 -2.929688 2.125 -1.980469 2.9375 0 L 2.9375 5.957031 C 2.9375 6.046875 2.886719 6.09375 2.78125 6.09375 L 17.753906 6.09375 C 17.636719 6.09375 17.578125 6.042969 17.578125 5.9375 L 17.578125 14.765625 C 17.578125 13.191406 17.460938 12.96875 17.34375 12.324219 C 17.332031 12.234375 17.371094 12.1875 17.460938 12.1875 Z M 17.460938 12.1875 "/>
</g>
</svg>
