<?xml version="1.0" standalone="no"?>
<!DOCTYPE svg PUBLIC "-//W3C//DTD SVG 20010904//EN"
 "http://www.w3.org/TR/2001/REC-SVG-20010904/DTD/svg10.dtd">
<svg version="1.0" xmlns="http://www.w3.org/2000/svg"
 width="1200.000000pt" height="630.000000pt" viewBox="0 0 1200.000000 630.000000"
 preserveAspectRatio="xMidYMid meet">

<g transform="translate(0.000000,630.000000) scale(0.100000,-0.100000)"
fill="#000000" stroke="none">
<path d="M3840 4944 c-202 -26 -459 -117 -487 -174 -15 -30 -17 -174 -3 -201
15 -27 45 -24 146 15 177 68 241 81 424 81 150 0 170 -2 224 -24 138 -55 184
-149 193 -390 6 -137 5 -143 -13 -137 -177 53 -468 70 -632 37 -338 -70 -526
-348 -457 -676 56 -265 262 -406 574 -393 192 8 333 68 476 201 l73 67 41 -75
c23 -41 58 -92 80 -115 54 -57 84 -55 189 15 113 76 115 84 65 193 -23 48 -45
96 -49 107 -5 11 -11 234 -15 495 -6 441 -8 481 -27 553 -61 223 -194 350
-422 402 -73 16 -307 28 -380 19z m370 -1030 c139 -21 130 -15 130 -92 0 -161
-37 -268 -118 -344 -66 -62 -126 -95 -217 -118 -193 -49 -343 -7 -408 114 -19
35 -22 57 -22 146 0 90 3 111 22 147 83 154 270 199 613 147z"/>
<path d="M7954 4935 c-97 -17 -136 -31 -226 -77 -92 -48 -192 -147 -232 -231
-102 -215 -23 -471 187 -608 67 -44 122 -65 384 -149 225 -72 297 -112 332
-182 52 -109 4 -240 -113 -300 -152 -78 -470 -59 -719 43 -120 50 -137 39
-137 -86 0 -106 14 -128 103 -171 146 -69 390 -112 572 -100 293 18 497 133
593 334 107 225 40 478 -162 606 -64 41 -162 79 -386 152 -187 60 -248 87
-300 131 -90 75 -92 223 -3 306 104 97 419 103 655 12 49 -19 98 -35 109 -35
29 0 39 32 39 121 l0 82 -40 38 c-30 29 -62 45 -133 68 -174 55 -374 73 -523
46z"/>
<path d="M4878 4889 c-11 -6 -18 -22 -18 -39 0 -24 466 -1578 498 -1660 21
-55 45 -65 166 -68 136 -5 190 7 210 47 8 15 85 319 170 676 86 357 158 650
161 653 2 2 7 -6 10 -19 3 -13 75 -309 160 -658 101 -416 160 -643 173 -660
25 -34 47 -39 175 -40 115 -1 167 12 185 46 21 39 522 1656 522 1683 0 42 -24
50 -147 49 -132 -1 -152 -6 -178 -45 -13 -20 -85 -278 -194 -700 -95 -368
-176 -672 -180 -676 -3 -4 -75 289 -160 650 -85 361 -161 677 -170 702 -21 58
-52 69 -186 68 -125 -1 -153 -7 -176 -38 -11 -15 -78 -283 -176 -697 -87 -370
-160 -673 -163 -673 -3 0 -81 300 -175 667 -108 424 -177 677 -190 697 -11 16
-31 33 -45 37 -39 11 -253 10 -272 -2z"/>
</g>
</svg>
