<?xml version="1.0" encoding="UTF-8"?>
<svg xmlns="http://www.w3.org/2000/svg" xmlns:xlink="http://www.w3.org/1999/xlink" width="30px" height="30px" viewBox="0 0 30 30" version="1.1">
<g id="surface1">
<rect x="0" y="0" width="30" height="30" style="fill:rgb(96.862745%,87.45098%,11.764706%);fill-opacity:1;stroke:none;"/>
<path style=" stroke:none;fill-rule:nonzero;fill:rgb(0%,0%,0%);fill-opacity:1;" d="M 7.886719 25.070312 L 10.183594 23.679688 C 10.625 24.464844 11.03125 25.128906 11.996094 25.128906 C 12.921875 25.128906 13.507812 24.769531 13.507812 23.359375 L 13.507812 13.773438 L 16.324219 13.773438 L 16.324219 23.398438 C 16.324219 26.320312 14.613281 27.648438 12.117188 27.648438 C 9.863281 27.648438 8.550781 26.480469 7.886719 25.070312 M 17.855469 24.769531 L 20.152344 23.4375 C 20.757812 24.425781 21.542969 25.152344 22.933594 25.152344 C 24.101562 25.152344 24.84375 24.566406 24.84375 23.761719 C 24.84375 22.792969 24.078125 22.453125 22.789062 21.886719 L 22.085938 21.585938 C 20.050781 20.71875 18.703125 19.632812 18.703125 17.335938 C 18.703125 15.222656 20.3125 13.613281 22.832031 13.613281 C 24.625 13.613281 25.914062 14.234375 26.839844 15.867188 L 24.644531 17.277344 C 24.160156 16.410156 23.636719 16.070312 22.832031 16.070312 C 22.003906 16.070312 21.480469 16.59375 21.480469 17.277344 C 21.480469 18.121094 22.003906 18.464844 23.214844 18.988281 L 23.917969 19.289062 C 26.316406 20.316406 27.664062 21.363281 27.664062 23.722656 C 27.664062 26.257812 25.671875 27.648438 22.992188 27.648438 C 20.375 27.648438 18.683594 26.398438 17.855469 24.769531 "/>
</g>
</svg>
