<?xml version="1.0" encoding="UTF-8"?>
<svg xmlns="http://www.w3.org/2000/svg" xmlns:xlink="http://www.w3.org/1999/xlink" width="18px" height="30px" viewBox="0 0 18 29" version="1.1">
<g id="surface1">
<path style=" stroke:none;fill-rule:nonzero;fill:rgb(82.745098%,21.960784%,20%);fill-opacity:1;" d="M 17.628906 11.773438 C 17.628906 16.601562 13.757812 20.523438 8.976562 20.523438 C 4.199219 20.523438 0.328125 16.601562 0.328125 11.773438 C 0.328125 6.941406 4.199219 3.023438 8.976562 3.023438 C 13.757812 3.023438 17.628906 6.941406 17.628906 11.773438 "/>
<path style=" stroke:none;fill-rule:nonzero;fill:rgb(93.72549%,23.921569%,22.745098%);fill-opacity:1;" d="M 0.683594 13.9375 C 0.683594 13.9375 0.0546875 4.816406 8.558594 4.554688 L 7.964844 3.574219 L 3.355469 5.105469 L 2.035156 6.605469 L 0.886719 8.785156 L 0.230469 11.324219 L 0.425781 13.019531 "/>
<path style=" stroke:none;fill-rule:nonzero;fill:rgb(13.72549%,12.156863%,12.54902%);fill-opacity:1;" d="M 3.054688 5.804688 C 1.542969 7.34375 0.601562 9.460938 0.601562 11.808594 C 0.601562 14.152344 1.542969 16.269531 3.054688 17.808594 C 4.574219 19.347656 6.660156 20.292969 8.976562 20.292969 C 11.292969 20.292969 13.378906 19.347656 14.898438 17.808594 C 16.414062 16.269531 17.355469 14.152344 17.355469 11.808594 C 17.355469 9.460938 16.414062 7.34375 14.898438 5.804688 C 13.378906 4.269531 11.292969 3.320312 8.976562 3.320312 C 6.667969 3.320312 4.574219 4.265625 3.054688 5.804688 Z M 2.671875 18.175781 C 1.058594 16.546875 0.0625 14.292969 0.0625 11.808594 C 0.0625 9.324219 1.058594 7.066406 2.671875 5.429688 C 4.28125 3.800781 6.515625 2.789062 8.976562 2.789062 C 11.441406 2.789062 13.671875 3.800781 15.285156 5.429688 C 16.894531 7.058594 17.894531 9.316406 17.894531 11.808594 C 17.894531 14.289062 16.894531 16.546875 15.285156 18.175781 C 13.671875 19.8125 11.441406 20.820312 8.976562 20.820312 C 6.515625 20.820312 4.28125 19.8125 2.671875 18.175781 Z M 2.671875 18.175781 "/>
<path style=" stroke:none;fill-rule:nonzero;fill:rgb(94.117647%,83.921569%,71.764706%);fill-opacity:1;" d="M 12.617188 11.820312 L 11.300781 12.015625 L 9.523438 12.214844 L 8.371094 12.242188 L 7.246094 12.207031 L 6.390625 11.945312 L 5.628906 11.128906 L 5.035156 9.46875 L 4.902344 9.109375 L 4.117188 8.847656 L 3.65625 8.09375 L 3.328125 7.019531 L 3.691406 6.074219 L 4.546875 5.777344 L 5.238281 6.101562 L 5.566406 6.816406 L 5.964844 6.753906 L 6.097656 6.589844 L 5.964844 5.835938 L 5.929688 4.890625 L 6.125 3.589844 L 6.117188 2.84375 L 6.71875 1.890625 L 7.769531 1.136719 L 9.613281 0.359375 L 11.65625 0.65625 L 13.433594 1.925781 L 14.257812 3.230469 L 14.789062 4.175781 L 14.921875 6.519531 L 14.523438 8.542969 L 13.796875 10.335938 L 13.113281 11.296875 "/>
<path style=" stroke:none;fill-rule:nonzero;fill:rgb(20%,31.372549%,38.039216%);fill-opacity:1;" d="M 11.503906 17.457031 L 6.792969 17.652344 L 6.792969 18.429688 L 7.191406 21.171875 L 6.996094 21.398438 L 3.703125 20.289062 L 3.472656 19.894531 L 3.144531 16.210938 L 2.371094 14 L 2.203125 13.476562 L 4.839844 11.683594 L 5.664062 11.359375 L 6.390625 12.242188 L 7.015625 12.792969 L 7.742188 13.019531 L 8.070312 13.117188 L 8.46875 14.816406 L 8.769531 15.175781 L 9.527344 14.910156 L 9 15.925781 L 11.859375 17.265625 L 11.503906 17.457031 "/>
<path style=" stroke:none;fill-rule:nonzero;fill:rgb(42.745098%,41.960784%,42.745098%);fill-opacity:1;" d="M 3.691406 6.085938 L 4.546875 5.789062 L 5.238281 6.113281 L 5.566406 6.832031 L 5.964844 6.769531 L 6.0625 6.375 L 5.867188 5.625 L 6.0625 3.828125 L 5.894531 2.851562 L 6.488281 2.167969 L 7.769531 1.160156 L 7.40625 0.667969 L 5.59375 1.550781 L 4.835938 2.140625 L 4.410156 3.050781 L 3.753906 3.933594 L 3.558594 4.976562 L 3.691406 6.085938 "/>
<path style=" stroke:none;fill-rule:nonzero;fill:rgb(86.27451%,85.098039%,84.705882%);fill-opacity:1;" d="M 5.042969 3.023438 C 5.042969 3.023438 5.539062 1.816406 7.511719 1.226562 C 9.488281 0.640625 7.609375 0.808594 7.609375 0.808594 L 5.46875 1.621094 L 4.644531 2.4375 L 4.28125 3.085938 L 5.042969 3.023438 M 4.054688 5.859375 C 4.054688 5.859375 3.363281 3.574219 6 3.25 L 5.902344 2.855469 L 4.085938 3.277344 L 3.558594 4.976562 L 3.691406 6.085938 L 4.054688 5.859375 "/>
<path style=" stroke:none;fill-rule:nonzero;fill:rgb(96.862745%,89.411765%,80.392157%);fill-opacity:1;" d="M 5.105469 8.886719 L 5.539062 8.472656 C 5.539062 8.472656 5.734375 8.496094 5.769531 8.722656 C 5.804688 8.949219 5.902344 11.007812 7.316406 12.109375 C 7.449219 12.214844 6.265625 11.945312 6.265625 11.945312 L 5.210938 10.316406 M 11.167969 8.265625 C 11.167969 8.265625 11.246094 7.28125 11.515625 7.355469 C 11.789062 7.433594 11.789062 7.699219 11.789062 7.699219 C 11.789062 7.699219 11.132812 8.113281 11.167969 8.265625 M 13.902344 4.652344 C 13.902344 4.652344 13.359375 4.761719 13.308594 5.238281 C 13.261719 5.714844 13.902344 5.335938 14 5.300781 M 9.917969 4.683594 C 9.917969 4.683594 9.195312 4.78125 9.195312 5.238281 C 9.195312 5.691406 10.015625 5.660156 10.246094 5.464844 M 5.441406 6.804688 C 5.441406 6.804688 4.191406 6.050781 4.058594 6.769531 C 3.925781 7.488281 3.632812 8.003906 4.253906 8.757812 L 3.828125 8.625 L 3.433594 7.617188 L 3.300781 6.636719 L 4.058594 5.859375 L 4.917969 5.921875 L 5.414062 6.3125 L 5.441406 6.804688 M 6.035156 4.746094 C 6.035156 4.746094 6.59375 1.875 9.425781 1.324219 C 11.753906 0.871094 12.980469 1.421875 13.441406 1.945312 C 13.441406 1.945312 11.363281 -0.496094 9.390625 0.25 C 7.414062 1 5.964844 2.367188 6 3.242188 C 6.054688 4.746094 6.035156 4.746094 6.035156 4.746094 M 13.671875 2.269531 C 13.671875 2.269531 12.714844 2.234375 12.683594 3.085938 C 12.683594 3.085938 12.683594 3.214844 12.746094 3.347656 C 12.746094 3.347656 13.503906 2.496094 13.964844 2.953125 "/>
<path style=" stroke:none;fill-rule:nonzero;fill:rgb(96.862745%,89.411765%,80.392157%);fill-opacity:1;" d="M 9.492188 3.4375 C 9.492188 3.4375 9.328125 2.140625 8.210938 2.890625 C 7.484375 3.382812 7.554688 4.0625 7.679688 4.195312 C 7.8125 4.328125 7.777344 4.589844 7.875 4.410156 C 7.972656 4.230469 7.945312 3.644531 8.308594 3.476562 C 8.664062 3.3125 9.265625 3.132812 9.492188 3.4375 "/>
<path style=" stroke:none;fill-rule:nonzero;fill:rgb(28.627451%,44.705882%,54.509804%);fill-opacity:1;" d="M 6.398438 12.242188 L 3.300781 13.609375 C 3.300781 13.609375 4.582031 18.660156 3.925781 20.226562 L 3.46875 20.058594 L 3.433594 18.132812 L 2.574219 14.492188 L 2.210938 13.484375 L 5.441406 11.332031 L 6.398438 12.242188 M 6.710938 15.035156 L 7.148438 15.566406 L 7.148438 17.519531 L 6.628906 17.519531 C 6.628906 17.519531 6.5625 16.152344 6.5625 15.988281 C 6.5625 15.824219 6.628906 15.238281 6.628906 15.238281 M 6.722656 17.816406 L 5.238281 17.878906 L 5.664062 18.175781 L 6.71875 18.339844 "/>
<path style=" stroke:none;fill-rule:nonzero;fill:rgb(20%,31.372549%,38.039216%);fill-opacity:1;" d="M 11.796875 17.492188 L 13.015625 17.457031 L 13.316406 20.453125 L 12.066406 20.617188 L 11.796875 17.492188 "/>
<path style=" stroke:none;fill-rule:nonzero;fill:rgb(20%,31.372549%,38.039216%);fill-opacity:1;" d="M 12.125 17.492188 L 13.964844 17.394531 C 13.964844 17.394531 14.726562 15.503906 14.726562 15.410156 C 14.726562 15.3125 15.382812 12.667969 15.382812 12.667969 L 13.894531 11.136719 L 13.59375 10.875 L 12.808594 11.65625 L 12.808594 14.683594 L 12.125 17.492188 "/>
<path style=" stroke:none;fill-rule:nonzero;fill:rgb(28.627451%,44.705882%,54.509804%);fill-opacity:1;" d="M 12.945312 17.265625 L 11.796875 17.492188 L 11.964844 18.402344 C 12.390625 18.597656 13.113281 18.078125 13.113281 18.078125 M 12.980469 11.558594 L 15.289062 13.257812 L 15.355469 12.476562 L 13.609375 10.882812 L 12.980469 11.558594 "/>
<path style=" stroke:none;fill-rule:nonzero;fill:rgb(100%,100%,100%);fill-opacity:1;" d="M 7.867188 23.910156 L 7.183594 21.171875 L 6.84375 19.148438 L 6.789062 17.652344 L 9.878906 17.484375 L 11.796875 17.484375 L 11.621094 20.910156 L 11.921875 23.550781 L 11.886719 24.042969 L 9.382812 24.234375 L 7.867188 23.910156 "/>
<path style=" stroke:none;fill-rule:nonzero;fill:rgb(86.27451%,85.098039%,84.705882%);fill-opacity:1;" d="M 11.371094 17.457031 C 11.371094 17.457031 11.203125 20.847656 11.699219 23.261719 C 11.699219 23.261719 10.707031 23.882812 9.265625 24.042969 L 12.03125 23.945312 L 12.359375 23.75 L 11.964844 18.410156 L 11.859375 17.265625 "/>
<path style=" stroke:none;fill-rule:nonzero;fill:rgb(100%,100%,100%);fill-opacity:1;" d="M 13.367188 20.199219 L 14.648438 19.839844 L 17.082031 19.707031 L 17.445312 18.597656 L 16.789062 16.671875 L 16.03125 16.574219 L 14.976562 16.898438 L 13.972656 17.390625 L 13.433594 17.292969 L 13.015625 17.457031 "/>
<path style=" stroke:none;fill-rule:nonzero;fill:rgb(86.27451%,85.098039%,84.705882%);fill-opacity:1;" d="M 13.34375 19.542969 C 13.34375 19.542969 14.203125 19.148438 14.335938 19.183594 L 13.972656 17.390625 L 14.398438 17.222656 C 14.398438 17.222656 14.699219 18.921875 14.699219 19.113281 C 14.699219 19.113281 16.539062 19.210938 16.707031 19.210938 C 16.707031 19.210938 17.105469 18.457031 17.007812 17.679688 L 17.371094 18.722656 L 17.40625 19.308594 L 16.875 20.085938 L 16.28125 20.21875 L 15.289062 20.183594 L 14.960938 19.761719 L 13.8125 19.929688 L 13.449219 20.058594 "/>
<path style=" stroke:none;fill-rule:nonzero;fill:rgb(100%,100%,100%);fill-opacity:1;" d="M 12.046875 17.230469 L 11.320312 15.410156 L 10.5625 14.332031 C 10.5625 14.332031 10.730469 13.875 10.957031 13.875 L 11.71875 13.875 L 12.445312 14.140625 L 12.382812 15.347656 L 12.046875 17.230469 "/>
<path style=" stroke:none;fill-rule:nonzero;fill:rgb(86.27451%,85.098039%,84.705882%);fill-opacity:1;" d="M 12.195312 16.609375 C 12.195312 16.609375 11.273438 14.851562 11.273438 14.585938 C 11.273438 14.585938 11.441406 14.195312 11.671875 14.292969 C 11.902344 14.386719 12.394531 14.648438 12.394531 14.648438 L 12.394531 14.027344 L 11.273438 13.800781 L 10.511719 13.898438 L 11.796875 16.90625 L 12.0625 16.941406 "/>
<path style=" stroke:none;fill-rule:nonzero;fill:rgb(100%,100%,100%);fill-opacity:1;" d="M 8.160156 12.308594 L 7.246094 12.214844 L 6.390625 11.953125 L 6.390625 12.25 L 6.808594 12.703125 L 8.125 13.289062 "/>
<path style=" stroke:none;fill-rule:nonzero;fill:rgb(86.27451%,85.098039%,84.705882%);fill-opacity:1;" d="M 6.691406 12.40625 C 6.691406 12.40625 7.707031 12.828125 8.042969 12.730469 L 8.078125 13.125 L 7.15625 12.929688 L 6.597656 12.539062 L 6.691406 12.40625 "/>
<path style=" stroke:none;fill-rule:nonzero;fill:rgb(82.745098%,21.960784%,20%);fill-opacity:1;" d="M 13.367188 13.988281 C 12.808594 13.972656 12.296875 13.90625 11.859375 13.78125 C 11.886719 13.601562 11.832031 13.429688 11.878906 13.296875 C 12.003906 13.207031 12.207031 13.207031 12.394531 13.1875 C 12.234375 13.109375 12.003906 13.078125 11.824219 13.125 C 11.816406 13 11.761719 12.925781 11.726562 12.828125 C 12.039062 12.71875 12.78125 11.992188 13.199219 12.226562 C 13.398438 12.34375 13.484375 12.992188 13.496094 13.316406 C 13.511719 13.582031 13.46875 13.84375 13.367188 13.988281 "/>
<path style="fill-rule:nonzero;fill:rgb(0%,0%,0%);fill-opacity:1;stroke-width:2;stroke-linecap:butt;stroke-linejoin:miter;stroke:rgb(82.745098%,21.960784%,20%);stroke-opacity:1;stroke-miterlimit:4;" d="M 190.139331 201.141837 C 182.193707 200.917161 174.914849 199.962284 168.691703 198.164871 C 169.08065 195.581088 168.302757 193.109644 168.969522 191.199892 C 170.747564 189.908001 173.636882 189.908001 176.303944 189.627155 C 174.025828 188.503772 170.747564 188.054418 168.191629 188.728448 C 168.080501 186.931034 167.302608 185.86382 166.802534 184.459591 C 171.247638 182.886853 181.80476 172.439386 187.750087 175.809537 C 190.583841 177.494612 191.806245 186.818696 191.972936 191.480738 C 192.195191 195.300242 191.58399 199.063578 190.139331 201.141837 Z M 190.139331 201.141837 " transform="matrix(0.0703021,0,0,0.0695444,0,0)"/>
<path style=" stroke:none;fill-rule:nonzero;fill:rgb(82.745098%,21.960784%,20%);fill-opacity:1;" d="M 10.695312 13.082031 C 10.695312 13.125 10.695312 13.167969 10.6875 13.207031 C 10.511719 13.316406 10.234375 13.316406 10.039062 13.414062 C 10.316406 13.429688 10.539062 13.496094 10.734375 13.585938 C 10.730469 13.691406 10.730469 13.800781 10.722656 13.90625 C 10.402344 14.117188 10.109375 14.441406 9.730469 14.648438 C 9.550781 14.746094 8.929688 14.996094 8.742188 14.945312 C 8.636719 14.917969 8.621094 14.789062 8.582031 14.664062 C 8.488281 14.402344 8.28125 13.972656 8.257812 13.574219 C 8.238281 13.070312 8.183594 12.222656 8.734375 12.324219 C 9.179688 12.40625 9.695312 12.605469 10.039062 12.792969 C 10.253906 12.917969 10.371094 13.054688 10.695312 13.082031 "/>
<path style="fill-rule:nonzero;fill:rgb(0%,0%,0%);fill-opacity:1;stroke-width:2;stroke-linecap:butt;stroke-linejoin:miter;stroke:rgb(82.745098%,21.960784%,20%);stroke-opacity:1;stroke-miterlimit:4;" d="M 152.13369 188.110587 C 152.13369 188.728448 152.13369 189.346309 152.022562 189.908001 C 149.522191 191.480738 145.577161 191.480738 142.798971 192.884968 C 146.744001 193.109644 149.911138 194.06452 152.689328 195.356412 C 152.633764 196.87298 152.633764 198.445717 152.522637 199.962284 C 147.966405 202.99542 143.79912 207.657462 138.409431 210.634429 C 135.853496 212.038658 127.018852 215.633486 124.351789 214.903287 C 122.851566 214.510102 122.629311 212.656519 122.073673 210.859106 C 120.740142 207.09577 117.79526 200.917161 117.461878 195.187904 C 117.184059 187.94208 116.406165 175.753367 124.240661 177.213766 C 130.574935 178.393319 137.909357 181.257947 142.798971 183.954068 C 145.85498 185.751482 147.521895 187.717403 152.13369 188.110587 Z M 152.13369 188.110587 " transform="matrix(0.0703021,0,0,0.0695444,0,0)"/>
<path style=" stroke:none;fill-rule:nonzero;fill:rgb(82.745098%,21.960784%,20%);fill-opacity:1;" d="M 11.007812 13.683594 C 10.957031 13.40625 10.902344 13.332031 10.925781 13.089844 C 11.671875 12.601562 11.804688 13.933594 11.007812 13.683594 "/>
<path style="fill-rule:nonzero;fill:rgb(0%,0%,0%);fill-opacity:1;stroke-width:2;stroke-linecap:butt;stroke-linejoin:miter;stroke:rgb(82.745098%,21.960784%,20%);stroke-opacity:1;stroke-miterlimit:4;" d="M 156.578794 196.760641 C 155.856465 192.772629 155.078572 191.705415 155.411954 188.222926 C 166.024641 181.201778 167.91381 200.355469 156.578794 196.760641 Z M 156.578794 196.760641 " transform="matrix(0.0703021,0,0,0.0695444,0,0)"/>
<path style=" stroke:none;fill-rule:nonzero;fill:rgb(93.72549%,23.921569%,22.745098%);fill-opacity:1;" d="M 12.082031 13.90625 C 12.082031 13.90625 11.851562 13.582031 12.019531 13.484375 C 12.1875 13.386719 12.347656 13.484375 12.445312 13.316406 C 12.542969 13.152344 12.445312 13.054688 12.480469 12.863281 C 12.515625 12.667969 12.675781 12.636719 12.84375 12.601562 C 13.007812 12.566406 13.46875 12.503906 13.53125 12.664062 L 13.335938 12.074219 L 12.941406 11.945312 L 11.691406 12.664062 L 11.628906 13.019531 L 11.628906 13.738281 M 8.621094 14.980469 C 8.582031 14.46875 8.539062 13.964844 8.496094 13.457031 C 8.425781 12.695312 8.679688 12.828125 9.347656 12.828125 C 9.453125 12.828125 9.976562 12.945312 10.011719 13.019531 C 10.191406 13.386719 9.710938 13.304688 10.21875 13.582031 C 10.644531 13.808594 11.40625 13.441406 11.230469 12.925781 C 11.132812 12.808594 10.730469 12.890625 10.582031 12.8125 L 9.808594 12.421875 C 9.480469 12.253906 8.726562 12.007812 8.378906 12.242188 C 7.492188 12.835938 8.433594 14.324219 8.746094 14.945312 "/>
<path style=" stroke:none;fill-rule:nonzero;fill:rgb(13.72549%,12.156863%,12.54902%);fill-opacity:1;" d="M 9.492188 3.4375 C 8.59375 3.230469 8.148438 3.808594 7.875 4.410156 C 7.632812 4.355469 7.730469 4.023438 7.792969 3.855469 C 7.953125 3.421875 8.601562 2.835938 9.132812 2.917969 C 9.355469 2.945312 9.660156 3.152344 9.492188 3.4375 M 13.867188 4.445312 L 13.910156 4.445312 C 14.113281 4.859375 14.285156 5.300781 14.542969 5.671875 C 14.371094 6.074219 13.246094 6.417969 13.261719 5.714844 C 13.503906 5.609375 13.921875 5.691406 14.140625 5.554688 C 14.015625 5.21875 13.839844 4.925781 13.867188 4.445312 M 9.949219 4.457031 C 10.144531 4.808594 10.207031 5.175781 10.476562 5.4375 C 10.601562 5.554688 10.839844 5.699219 10.722656 6.03125 C 10.695312 6.105469 10.492188 6.28125 10.371094 6.3125 C 9.949219 6.4375 8.949219 6.339844 9.285156 5.808594 C 9.640625 5.824219 10.113281 6.039062 10.378906 5.78125 C 10.175781 5.464844 9.816406 4.832031 9.949219 4.457031 M 13.707031 8.003906 C 13.066406 8.410156 12.347656 8.859375 11.285156 8.757812 C 11.0625 8.5625 10.972656 8.128906 11.195312 7.847656 C 11.308594 8.039062 11.238281 8.398438 11.558594 8.453125 C 12.160156 8.558594 12.855469 8.085938 13.289062 7.929688 C 13.554688 7.480469 13.269531 7.320312 13.023438 7.03125 C 12.527344 6.445312 11.871094 5.714844 11.894531 4.835938 C 12.097656 4.691406 12.109375 5.058594 12.136719 5.121094 C 12.394531 5.714844 13.042969 6.480469 13.511719 6.992188 C 13.628906 7.113281 13.820312 7.238281 13.839844 7.320312 C 13.902344 7.554688 13.679688 7.847656 13.707031 8.003906 M 5.210938 7.578125 C 5.007812 7.460938 4.960938 6.960938 4.722656 6.949219 C 4.378906 6.929688 4.445312 7.597656 4.445312 7.992188 C 4.214844 7.785156 4.171875 7.136719 4.339844 6.804688 C 4.144531 6.707031 4.058594 6.90625 3.949219 6.976562 C 4.09375 5.976562 5.433594 6.515625 5.210938 7.578125 M 14.113281 8.425781 C 13.8125 8.992188 13.386719 9.613281 12.507812 9.632812 C 12.488281 9.453125 12.472656 9.171875 12.507812 9.058594 C 13.183594 8.992188 13.601562 8.652344 14.113281 8.425781 M 9.898438 8.792969 C 10.457031 9.082031 11.488281 9.117188 12.257812 9.09375 C 12.296875 9.261719 12.296875 9.46875 12.296875 9.667969 C 11.316406 9.710938 10.15625 9.46875 9.898438 8.792969 M 9.792969 9.328125 C 10.183594 10.296875 11.515625 10.183594 12.640625 10.15625 C 12.589844 10.28125 12.488281 10.433594 12.347656 10.480469 C 11.984375 10.625 10.992188 10.738281 10.492188 10.476562 C 10.175781 10.308594 9.96875 9.929688 9.792969 9.710938 C 9.71875 9.605469 9.296875 9.335938 9.792969 9.328125 "/>
<path style=" stroke:none;fill-rule:nonzero;fill:rgb(50.588235%,69.019608%,76.862745%);fill-opacity:1;" d="M 13.660156 14.648438 C 13.203125 15.421875 12.765625 16.214844 12.226562 16.890625 C 12.453125 16.238281 12.550781 15.132812 12.585938 14.292969 C 13.058594 14.070312 13.464844 14.339844 13.660156 14.648438 "/>
<path style=" stroke:none;fill-rule:nonzero;fill:rgb(13.72549%,12.156863%,12.54902%);fill-opacity:1;" d="M 16.105469 17.425781 C 15.597656 17.527344 15.242188 18.015625 14.738281 17.984375 C 15.019531 17.601562 15.492188 17.4375 16.105469 17.425781 M 16.332031 18.210938 C 15.910156 18.25 15.421875 18.320312 15.003906 18.285156 C 15.207031 17.984375 15.972656 18.09375 16.332031 18.210938 M 16.476562 18.894531 C 16.007812 18.902344 15.429688 18.894531 14.984375 18.859375 C 15.25 18.578125 16.175781 18.753906 16.476562 18.894531 "/>
<path style=" stroke:none;fill-rule:nonzero;fill:rgb(86.27451%,85.098039%,84.705882%);fill-opacity:1;" d="M 12.78125 20.757812 C 12.847656 21.335938 13.078125 21.921875 13.050781 22.558594 C 12.792969 22.640625 12.648438 22.714844 12.296875 22.714844 C 12.277344 22.179688 12.199219 21.351562 12.222656 20.832031 C 12.390625 20.847656 12.640625 20.714844 12.78125 20.757812 "/>
<path style=" stroke:none;fill-rule:nonzero;fill:rgb(94.117647%,83.921569%,71.764706%);fill-opacity:1;" d="M 12.027344 12.199219 C 11.789062 12.351562 11.59375 12.539062 11.363281 12.703125 C 10.859375 12.730469 10.589844 12.667969 10.226562 12.386719 C 10.234375 12.367188 10.269531 12.371094 10.269531 12.34375 C 10.804688 12.578125 11.488281 12.25 12.027344 12.199219 "/>
<path style=" stroke:none;fill-rule:nonzero;fill:rgb(50.588235%,69.019608%,76.862745%);fill-opacity:1;" d="M 9.222656 15.808594 C 9.367188 15.179688 9.949219 14.851562 10.46875 14.503906 C 11.007812 15.179688 11.335938 16.050781 11.699219 16.890625 C 10.839844 16.636719 9.96875 16.230469 9.222656 15.808594 "/>
<path style=" stroke:none;fill-rule:nonzero;fill:rgb(13.72549%,12.156863%,12.54902%);fill-opacity:1;" d="M 12.222656 20.839844 C 12.199219 21.355469 12.269531 22.179688 12.296875 22.722656 C 12.648438 22.722656 12.792969 22.648438 13.050781 22.566406 C 13.078125 21.929688 12.847656 21.34375 12.78125 20.761719 C 12.640625 20.714844 12.390625 20.847656 12.222656 20.839844 Z M 6.835938 17.914062 C 7.066406 19.992188 7.394531 21.730469 8 23.570312 C 9.347656 23.980469 10.964844 24.015625 12.160156 23.648438 C 11.941406 22.613281 12.03125 21.351562 11.90625 20.238281 C 11.808594 19.402344 11.859375 18.570312 11.726562 17.71875 C 10.28125 17.425781 8.246094 17.652344 6.835938 17.914062 Z M 12.066406 17.734375 C 12.054688 18.625 12.109375 19.507812 12.179688 20.398438 C 12.527344 20.351562 12.757812 20.316406 13.078125 20.238281 C 12.976562 19.382812 12.988281 18.410156 12.773438 17.652344 C 12.527344 17.660156 12.3125 17.652344 12.066406 17.734375 Z M 13.820312 17.589844 C 13.652344 17.554688 13.464844 17.589844 13.308594 17.589844 C 13.386719 18.3125 13.5625 19.113281 13.625 19.878906 C 13.867188 19.886719 14 19.769531 14.203125 19.734375 C 14.214844 19.066406 14.148438 18.140625 13.820312 17.589844 Z M 16.476562 19.992188 C 16.992188 19.867188 17.3125 19.246094 17.167969 18.605469 C 17.070312 18.175781 16.902344 17.363281 16.714844 17.085938 C 16.582031 16.886719 16.210938 16.617188 15.910156 16.804688 C 15.429688 17.105469 14.585938 17.195312 14.238281 17.5625 C 14.410156 18.140625 14.46875 18.929688 14.539062 19.660156 C 15.136719 19.695312 15.871094 19.492188 16.371094 19.707031 C 16.023438 19.816406 15.578125 19.816406 15.277344 19.984375 C 15.527344 20.101562 16.101562 20.082031 16.476562 19.992188 Z M 11.691406 16.890625 C 11.328125 16.050781 11 15.179688 10.464844 14.503906 C 9.941406 14.851562 9.367188 15.179688 9.214844 15.808594 C 9.96875 16.230469 10.839844 16.636719 11.691406 16.890625 Z M 12.585938 14.292969 C 12.550781 15.132812 12.453125 16.238281 12.226562 16.890625 C 12.765625 16.210938 13.203125 15.421875 13.660156 14.648438 C 13.464844 14.339844 13.058594 14.070312 12.585938 14.289062 Z M 11.574219 13.9375 C 11.371094 13.917969 11.195312 14.171875 10.929688 14.0625 C 10.867188 14.132812 10.8125 14.203125 10.75 14.269531 C 11.335938 14.972656 11.609375 15.96875 12.0625 16.789062 C 12.304688 15.996094 12.277344 15.132812 12.332031 14.269531 C 12 14.285156 11.808594 13.960938 11.574219 13.9375 Z M 10.925781 13.089844 C 10.902344 13.332031 10.957031 13.40625 11.007812 13.683594 C 11.804688 13.933594 11.671875 12.601562 10.925781 13.089844 Z M 10.039062 12.800781 C 9.695312 12.613281 9.179688 12.414062 8.734375 12.332031 C 8.183594 12.226562 8.238281 13.078125 8.257812 13.582031 C 8.28125 13.980469 8.488281 14.402344 8.582031 14.671875 C 8.621094 14.792969 8.636719 14.925781 8.742188 14.953125 C 8.929688 14.996094 9.558594 14.753906 9.730469 14.65625 C 10.109375 14.457031 10.402344 14.132812 10.722656 13.910156 C 10.730469 13.808594 10.730469 13.699219 10.734375 13.59375 C 10.539062 13.496094 10.324219 13.433594 10.039062 13.421875 C 10.226562 13.324219 10.511719 13.324219 10.6875 13.214844 C 10.6875 13.171875 10.6875 13.132812 10.695312 13.089844 C 10.371094 13.054688 10.253906 12.917969 10.039062 12.800781 Z M 6.757812 12.214844 C 6.472656 12.503906 7.5625 12.890625 7.902344 12.910156 C 7.902344 12.730469 8.007812 12.558594 7.988281 12.429688 C 7.574219 12.359375 7.039062 12.40625 6.757812 12.214844 Z M 10.273438 12.34375 C 10.273438 12.371094 10.242188 12.367188 10.234375 12.386719 C 10.601562 12.667969 10.875 12.730469 11.371094 12.703125 C 11.59375 12.546875 11.796875 12.351562 12.03125 12.199219 C 11.488281 12.25 10.804688 12.578125 10.273438 12.34375 Z M 13.496094 13.3125 C 13.484375 12.992188 13.398438 12.339844 13.199219 12.222656 C 12.78125 11.980469 12.039062 12.710938 11.726562 12.820312 C 11.761719 12.917969 11.816406 12.992188 11.824219 13.117188 C 12.011719 13.070312 12.234375 13.105469 12.394531 13.179688 C 12.207031 13.199219 12.003906 13.199219 11.878906 13.289062 C 11.835938 13.421875 11.894531 13.59375 11.859375 13.773438 C 12.296875 13.898438 12.808594 13.960938 13.367188 13.980469 C 13.46875 13.84375 13.511719 13.582031 13.496094 13.3125 Z M 6.277344 12.488281 C 6.1875 12.429688 5.582031 11.648438 5.496094 11.683594 C 4.402344 12.109375 3.375 12.847656 2.460938 13.550781 C 3.335938 15.410156 3.691406 17.679688 3.753906 19.867188 C 4.75 20.328125 5.628906 21 6.988281 21.066406 C 6.828125 19.96875 6.691406 18.984375 6.597656 17.949219 C 6.257812 17.804688 5.769531 17.957031 5.449219 17.90625 C 5.449219 17.527344 5.9375 17.742188 5.976562 17.484375 C 6.007812 17.292969 5.707031 17.277344 5.804688 16.976562 C 6.054688 17.066406 6.1875 17.265625 6.453125 17.339844 C 6.695312 16.816406 6.453125 15.886719 6.488281 15.445312 C 6.496094 15.359375 6.527344 14.988281 6.71875 15.050781 C 6.886719 15.105469 6.710938 16.050781 6.722656 16.464844 C 6.738281 16.851562 6.675781 17.21875 6.835938 17.457031 C 8.148438 17.277344 9.480469 17.167969 10.902344 17.128906 C 10.589844 16.996094 10.21875 16.871094 9.816406 16.644531 C 9.589844 16.519531 8.902344 16.265625 8.839844 16.058594 C 8.734375 15.726562 9.101562 15.554688 9.167969 15.269531 C 8.503906 15.628906 8.378906 14.925781 8.21875 14.4375 C 8.078125 13.988281 7.996094 13.648438 7.960938 13.394531 C 7.378906 13.105469 6.765625 12.835938 6.277344 12.488281 Z M 12.917969 11.773438 C 13.832031 11.335938 14 13.40625 13.636719 14.078125 C 13.691406 14.277344 13.882812 14.351562 13.957031 14.53125 C 13.449219 15.4375 12.882812 16.277344 12.359375 17.167969 C 12.746094 16.925781 13.300781 17.128906 13.757812 16.949219 C 13.921875 16.886719 14.042969 16.507812 14.167969 16.203125 C 14.515625 15.375 14.878906 14.324219 15.039062 13.539062 C 15.074219 13.359375 15.179688 12.964844 15.152344 12.808594 C 15.109375 12.515625 14.71875 12.304688 14.515625 12.132812 C 14.148438 11.800781 13.917969 11.515625 13.527344 11.207031 C 13.378906 11.433594 13.042969 11.585938 12.917969 11.773438 Z M 4.191406 3.761719 C 3.761719 4.238281 3.851562 5.121094 3.898438 5.753906 C 4.6875 5.265625 5.726562 5.796875 5.71875 6.625 C 6.097656 6.617188 5.859375 6.164062 5.789062 5.867188 C 5.566406 4.90625 6.167969 3.871094 5.816406 2.996094 C 5.140625 3.050781 4.589844 3.320312 4.191406 3.761719 Z M 7.304688 1.007812 C 6.320312 1.285156 5.058594 1.996094 4.652344 2.871094 C 4.964844 2.824219 5.183594 2.671875 5.488281 2.648438 C 5.609375 2.644531 5.761719 2.699219 5.894531 2.664062 C 6.160156 2.59375 6.390625 2 6.59375 1.78125 C 6.789062 1.566406 7.023438 1.46875 7.183594 1.277344 C 7.289062 1.226562 7.441406 1.226562 7.449219 1.078125 C 7.410156 1.027344 7.359375 0.992188 7.304688 1.007812 Z M 12.429688 1.269531 C 11.40625 0.695312 9.675781 0.269531 8.585938 0.808594 C 7.707031 1.242188 6.523438 1.960938 6.117188 2.863281 C 6.496094 3.738281 6.007812 4.539062 5.972656 5.429688 C 5.957031 5.90625 6.195312 6.3125 6.214844 6.832031 C 6.082031 7.046875 5.691406 7.066406 5.421875 7.050781 C 5.328125 6.597656 5.167969 6.085938 4.695312 6.03125 C 4.023438 5.957031 3.53125 6.507812 3.5 7.078125 C 3.46875 7.757812 4.023438 8.875 4.820312 8.796875 C 5.128906 8.769531 5.203125 8.46875 5.539062 8.46875 C 5.71875 8.824219 5.257812 8.9375 5.210938 9.191406 C 5.195312 9.261719 5.246094 9.515625 5.28125 9.640625 C 5.425781 10.226562 5.746094 10.992188 6.0625 11.441406 C 6.464844 12.015625 7.253906 12.097656 8.105469 12.152344 C 8.257812 11.828125 8.816406 11.855469 9.179688 11.9375 C 8.742188 11.765625 8.335938 11.351562 8 10.984375 C 7.617188 10.566406 7.226562 10.117188 7.207031 9.5625 C 7.9375 10.566406 8.539062 11.441406 9.863281 11.882812 C 10.867188 12.214844 12.039062 11.730469 12.8125 11.191406 C 13.136719 10.972656 13.324219 10.613281 13.554688 10.296875 C 14.40625 9.082031 14.800781 7.355469 14.71875 5.679688 C 14.683594 4.988281 14.683594 4.300781 14.445312 3.835938 C 14.203125 3.355469 13.371094 2.910156 12.882812 3.355469 C 12.792969 2.878906 13.289062 2.585938 13.867188 2.761719 C 13.457031 2.230469 13.023438 1.601562 12.429688 1.269531 Z M 14.34375 16.871094 C 15.144531 16.476562 16.636719 15.816406 17.132812 16.871094 C 17.320312 17.265625 17.535156 17.921875 17.628906 18.328125 C 17.761719 18.894531 17.480469 20.09375 16.886719 20.28125 C 16.363281 20.445312 15.757812 20.4375 15.128906 20.316406 C 15.054688 20.253906 14.976562 20.148438 14.914062 20.039062 C 14.46875 20.023438 14.042969 20.058594 13.691406 20.246094 C 13.726562 20.578125 13.503906 20.625 13.289062 20.695312 C 13.136719 21.308594 13.601562 22.109375 13.492188 22.660156 C 13.414062 23.0625 12.917969 23.125 12.554688 23.191406 C 12.542969 23.414062 12.570312 23.601562 12.597656 23.785156 C 12.515625 24.089844 12.144531 24.261719 11.789062 24.304688 C 10.625 24.441406 8.859375 24.503906 7.742188 24.105469 C 7.429688 23.34375 7.183594 22.425781 6.925781 21.5625 C 5.839844 21.679688 4.953125 21.101562 4.121094 20.714844 C 3.835938 20.585938 3.4375 20.507812 3.328125 20.28125 C 3.222656 20.058594 3.265625 19.640625 3.238281 19.246094 C 3.175781 18.230469 3.109375 17.25 2.847656 16.214844 C 2.726562 15.746094 2.511719 15.339844 2.363281 14.890625 C 2.226562 14.476562 1.988281 13.960938 1.925781 13.546875 C 1.835938 12.929688 2.421875 12.898438 2.789062 12.628906 C 3.371094 12.214844 3.824219 11.984375 4.449219 11.613281 C 4.640625 11.503906 5.195312 11.226562 5.257812 11.097656 C 5.386719 10.839844 5.042969 10.480469 4.953125 10.28125 C 4.804688 9.964844 4.730469 9.695312 4.707031 9.382812 C 4.183594 9.300781 3.78125 8.992188 3.542969 8.644531 C 3.144531 8.066406 2.867188 6.996094 3.214844 6.191406 C 3.242188 6.128906 3.375 5.996094 3.398438 5.898438 C 3.4375 5.707031 3.320312 5.453125 3.3125 5.246094 C 3.277344 4.1875 3.496094 3.277344 4.214844 2.960938 C 4.507812 1.808594 5.550781 1.429688 6.535156 0.855469 C 6.90625 0.640625 7.3125 0.503906 7.730469 0.351562 C 9.230469 -0.191406 11.539062 -0.0898438 12.785156 0.84375 C 13.316406 1.234375 14.160156 2.070312 14.460938 2.675781 C 15.261719 4.269531 15.199219 6.941406 14.640625 8.886719 C 14.566406 9.148438 14.460938 9.53125 14.308594 9.847656 C 14.203125 10.066406 13.875 10.503906 13.910156 10.695312 C 13.953125 10.894531 14.664062 11.425781 14.816406 11.570312 C 15.089844 11.835938 15.613281 12.179688 15.652344 12.511719 C 15.703125 12.863281 15.5 13.34375 15.394531 13.683594 C 15.058594 14.816406 14.726562 15.859375 14.34375 16.871094 Z M 14.34375 16.871094 "/>
<path style=" stroke:none;fill-rule:nonzero;fill:rgb(96.862745%,89.411765%,80.392157%);fill-opacity:1;" d="M 9.003906 9.03125 C 9.046875 8.976562 9.285156 8.886719 9.621094 9.046875 C 9.621094 9.046875 9.222656 9.109375 9.257812 9.765625 L 9.089844 9.730469 C 9.097656 9.738281 8.921875 9.144531 9.003906 9.03125 "/>
<path style=" stroke:none;fill-rule:nonzero;fill:rgb(11.372549%,9.803922%,9.803922%);fill-opacity:1;" d="M 11.894531 14.636719 C 11.894531 14.734375 11.808594 14.816406 11.710938 14.816406 C 11.613281 14.816406 11.53125 14.734375 11.53125 14.636719 C 11.53125 14.539062 11.613281 14.457031 11.710938 14.457031 C 11.816406 14.457031 11.894531 14.539062 11.894531 14.636719 M 12.074219 15.472656 C 12.074219 15.566406 11.992188 15.652344 11.894531 15.652344 C 11.796875 15.652344 11.710938 15.566406 11.710938 15.472656 C 11.710938 15.375 11.796875 15.292969 11.894531 15.292969 C 12 15.292969 12.074219 15.367188 12.074219 15.472656 "/>
<path style=" stroke:none;fill-rule:nonzero;fill:rgb(13.72549%,12.156863%,12.54902%);fill-opacity:1;" d="M 2.574219 26.027344 C 2.519531 26.035156 2.46875 26.042969 2.425781 26.050781 C 2.386719 26.054688 2.34375 26.0625 2.289062 26.078125 C 2.226562 26.089844 2.191406 26.117188 2.175781 26.160156 C 2.164062 26.203125 2.148438 26.242188 2.148438 26.296875 L 2.148438 27.980469 C 2.148438 28.128906 2.113281 28.277344 2.050781 28.410156 C 1.988281 28.539062 1.90625 28.644531 1.792969 28.734375 C 1.679688 28.816406 1.554688 28.886719 1.417969 28.925781 C 1.277344 28.96875 1.128906 28.996094 0.976562 28.996094 C 0.703125 28.996094 0.488281 28.933594 0.320312 28.804688 C 0.152344 28.671875 0.0703125 28.5 0.0703125 28.269531 C 0.0703125 28.140625 0.105469 28.03125 0.179688 27.941406 C 0.257812 27.851562 0.363281 27.808594 0.496094 27.808594 C 0.621094 27.808594 0.71875 27.84375 0.796875 27.917969 C 0.871094 27.996094 0.90625 28.085938 0.90625 28.1875 C 0.90625 28.277344 0.871094 28.367188 0.808594 28.445312 C 0.746094 28.519531 0.667969 28.597656 0.585938 28.65625 L 0.585938 28.683594 C 0.601562 28.714844 0.628906 28.742188 0.667969 28.761719 C 0.710938 28.78125 0.761719 28.789062 0.800781 28.789062 C 0.976562 28.789062 1.117188 28.726562 1.214844 28.601562 C 1.3125 28.476562 1.359375 28.292969 1.359375 28.042969 L 1.359375 26.320312 C 1.359375 26.269531 1.351562 26.222656 1.339844 26.1875 C 1.324219 26.152344 1.285156 26.125 1.222656 26.097656 C 1.179688 26.078125 1.125 26.0625 1.058594 26.050781 C 0.996094 26.035156 0.949219 26.027344 0.90625 26.023438 L 0.90625 25.855469 L 2.554688 25.855469 L 2.554688 26.027344 Z M 5.15625 28.402344 C 5.105469 28.484375 5.042969 28.5625 4.972656 28.636719 C 4.902344 28.714844 4.820312 28.769531 4.730469 28.824219 C 4.632812 28.878906 4.535156 28.921875 4.4375 28.949219 C 4.339844 28.976562 4.21875 28.988281 4.09375 28.988281 C 3.878906 28.988281 3.695312 28.960938 3.535156 28.898438 C 3.382812 28.835938 3.25 28.761719 3.152344 28.65625 C 3.046875 28.554688 2.980469 28.4375 2.921875 28.300781 C 2.871094 28.15625 2.847656 28.003906 2.847656 27.851562 C 2.847656 27.707031 2.875 27.5625 2.929688 27.429688 C 2.984375 27.296875 3.0625 27.175781 3.160156 27.070312 C 3.257812 26.96875 3.382812 26.882812 3.535156 26.824219 C 3.695312 26.757812 3.867188 26.726562 4.039062 26.726562 C 4.242188 26.726562 4.410156 26.753906 4.542969 26.800781 C 4.671875 26.851562 4.777344 26.917969 4.863281 27 C 4.945312 27.085938 5 27.179688 5.042969 27.292969 C 5.078125 27.402344 5.097656 27.519531 5.097656 27.644531 L 5.097656 27.78125 L 3.628906 27.78125 C 3.628906 28.078125 3.683594 28.300781 3.800781 28.449219 C 3.914062 28.601562 4.101562 28.679688 4.347656 28.679688 C 4.484375 28.679688 4.605469 28.644531 4.714844 28.566406 C 4.828125 28.492188 4.921875 28.398438 4.996094 28.285156 Z M 4.324219 27.582031 C 4.324219 27.5 4.316406 27.410156 4.3125 27.320312 C 4.304688 27.230469 4.289062 27.152344 4.261719 27.097656 C 4.234375 27.03125 4.207031 26.980469 4.15625 26.945312 C 4.117188 26.910156 4.058594 26.898438 3.996094 26.898438 C 3.886719 26.898438 3.792969 26.953125 3.730469 27.0625 C 3.664062 27.175781 3.628906 27.355469 3.621094 27.59375 Z M 8.230469 28.914062 L 6.917969 28.914062 L 6.917969 28.753906 C 6.949219 28.753906 6.984375 28.746094 7.019531 28.742188 C 7.058594 28.734375 7.085938 28.726562 7.109375 28.71875 C 7.136719 28.707031 7.15625 28.679688 7.171875 28.652344 C 7.183594 28.625 7.191406 28.574219 7.191406 28.519531 L 7.191406 27.511719 C 7.191406 27.367188 7.164062 27.257812 7.109375 27.179688 C 7.050781 27.105469 6.976562 27.070312 6.863281 27.070312 C 6.808594 27.070312 6.753906 27.078125 6.703125 27.097656 C 6.65625 27.113281 6.605469 27.140625 6.558594 27.175781 C 6.515625 27.203125 6.480469 27.230469 6.453125 27.265625 C 6.425781 27.292969 6.402344 27.320312 6.390625 27.347656 L 6.390625 28.5 C 6.390625 28.546875 6.398438 28.589844 6.410156 28.625 C 6.425781 28.65625 6.453125 28.6875 6.480469 28.699219 C 6.5 28.714844 6.527344 28.726562 6.5625 28.734375 L 6.667969 28.753906 L 6.667969 28.914062 L 5.34375 28.914062 L 5.34375 28.753906 C 5.378906 28.753906 5.414062 28.746094 5.453125 28.742188 C 5.488281 28.734375 5.523438 28.726562 5.550781 28.71875 C 5.601562 28.707031 5.628906 28.679688 5.648438 28.644531 C 5.664062 28.609375 5.679688 28.566406 5.679688 28.511719 L 5.679688 27.257812 C 5.679688 27.214844 5.664062 27.167969 5.644531 27.125 C 5.621094 27.085938 5.585938 27.050781 5.550781 27.023438 C 5.523438 27.007812 5.496094 26.988281 5.453125 26.980469 C 5.414062 26.96875 5.367188 26.960938 5.324219 26.960938 L 5.324219 26.800781 L 6.363281 26.746094 L 6.398438 26.78125 L 6.398438 27.089844 L 6.402344 27.089844 C 6.453125 27.050781 6.503906 27.007812 6.550781 26.960938 C 6.601562 26.917969 6.65625 26.875 6.710938 26.835938 C 6.765625 26.800781 6.835938 26.773438 6.917969 26.746094 C 7.003906 26.71875 7.101562 26.710938 7.199219 26.710938 C 7.4375 26.710938 7.609375 26.78125 7.730469 26.914062 C 7.847656 27.042969 7.902344 27.222656 7.902344 27.445312 L 7.902344 28.5 C 7.902344 28.554688 7.910156 28.597656 7.925781 28.625 C 7.9375 28.65625 7.972656 28.679688 8.015625 28.699219 C 8.035156 28.707031 8.0625 28.71875 8.097656 28.726562 C 8.132812 28.734375 8.167969 28.742188 8.21875 28.746094 L 8.21875 28.914062 Z M 11.230469 28.914062 L 10.207031 28.914062 C 10.097656 28.722656 9.980469 28.535156 9.855469 28.355469 C 9.753906 28.203125 9.65625 28.058594 9.5625 27.933594 L 9.4375 28.042969 L 9.4375 28.511719 C 9.4375 28.5625 9.445312 28.609375 9.460938 28.636719 C 9.472656 28.671875 9.5 28.691406 9.550781 28.714844 C 9.578125 28.726562 9.605469 28.734375 9.640625 28.742188 C 9.675781 28.746094 9.710938 28.753906 9.746094 28.753906 L 9.746094 28.914062 L 8.390625 28.914062 L 8.390625 28.753906 C 8.425781 28.753906 8.460938 28.746094 8.503906 28.742188 C 8.539062 28.734375 8.574219 28.726562 8.601562 28.71875 C 8.648438 28.707031 8.679688 28.679688 8.699219 28.644531 C 8.710938 28.609375 8.726562 28.566406 8.726562 28.511719 L 8.726562 26.113281 C 8.726562 26.0625 8.710938 26.015625 8.691406 25.964844 C 8.671875 25.917969 8.644531 25.878906 8.601562 25.847656 C 8.574219 25.835938 8.53125 25.816406 8.476562 25.808594 C 8.417969 25.792969 8.371094 25.789062 8.320312 25.789062 L 8.320312 25.628906 L 9.402344 25.574219 L 9.4375 25.609375 L 9.4375 27.828125 C 9.542969 27.734375 9.667969 27.621094 9.800781 27.5 C 9.933594 27.375 10.046875 27.269531 10.121094 27.1875 C 10.171875 27.140625 10.199219 27.105469 10.199219 27.078125 C 10.207031 27.050781 10.207031 27.035156 10.207031 27.03125 C 10.207031 27 10.183594 26.980469 10.136719 26.96875 C 10.085938 26.953125 10.023438 26.933594 9.925781 26.917969 L 9.925781 26.765625 L 11.027344 26.765625 L 11.027344 26.917969 C 10.882812 26.960938 10.769531 26.996094 10.695312 27.03125 C 10.617188 27.0625 10.535156 27.113281 10.441406 27.167969 C 10.382812 27.207031 10.324219 27.25 10.269531 27.292969 C 10.210938 27.332031 10.148438 27.386719 10.074219 27.449219 C 10.210938 27.65625 10.34375 27.84375 10.464844 28.015625 C 10.582031 28.1875 10.707031 28.375 10.839844 28.566406 C 10.882812 28.636719 10.9375 28.679688 11.007812 28.707031 C 11.078125 28.726562 11.140625 28.742188 11.210938 28.746094 L 11.210938 28.914062 Z M 12.625 28.914062 L 11.25 28.914062 L 11.25 28.753906 C 11.285156 28.753906 11.328125 28.746094 11.363281 28.742188 C 11.398438 28.734375 11.433594 28.726562 11.453125 28.71875 C 11.503906 28.707031 11.53125 28.679688 11.550781 28.644531 C 11.574219 28.609375 11.578125 28.566406 11.578125 28.511719 L 11.578125 27.257812 C 11.578125 27.207031 11.566406 27.160156 11.542969 27.125 C 11.527344 27.089844 11.496094 27.058594 11.460938 27.035156 C 11.433594 27.023438 11.398438 27 11.34375 26.988281 C 11.285156 26.972656 11.238281 26.960938 11.195312 26.960938 L 11.195312 26.800781 L 12.261719 26.746094 L 12.296875 26.78125 L 12.296875 28.492188 C 12.296875 28.539062 12.3125 28.582031 12.332031 28.625 C 12.355469 28.65625 12.390625 28.6875 12.421875 28.699219 C 12.453125 28.714844 12.488281 28.726562 12.519531 28.734375 C 12.554688 28.742188 12.589844 28.746094 12.632812 28.753906 L 12.632812 28.914062 Z M 12.3125 25.980469 C 12.3125 26.089844 12.269531 26.179688 12.1875 26.257812 C 12.101562 26.332031 12 26.375 11.886719 26.375 C 11.769531 26.375 11.671875 26.332031 11.578125 26.257812 C 11.496094 26.179688 11.453125 26.085938 11.453125 25.980469 C 11.453125 25.871094 11.496094 25.78125 11.578125 25.699219 C 11.664062 25.621094 11.769531 25.582031 11.886719 25.582031 C 12.003906 25.582031 12.101562 25.621094 12.1875 25.699219 C 12.269531 25.773438 12.3125 25.871094 12.3125 25.980469 Z M 15.703125 28.914062 L 14.390625 28.914062 L 14.390625 28.753906 C 14.417969 28.753906 14.453125 28.746094 14.488281 28.742188 C 14.53125 28.734375 14.558594 28.726562 14.578125 28.71875 C 14.605469 28.707031 14.628906 28.679688 14.640625 28.652344 C 14.65625 28.625 14.664062 28.574219 14.664062 28.519531 L 14.664062 27.511719 C 14.664062 27.367188 14.636719 27.257812 14.578125 27.179688 C 14.523438 27.105469 14.445312 27.070312 14.335938 27.070312 C 14.277344 27.070312 14.222656 27.078125 14.175781 27.097656 C 14.125 27.117188 14.078125 27.140625 14.027344 27.175781 C 13.984375 27.203125 13.953125 27.230469 13.921875 27.265625 C 13.894531 27.292969 13.875 27.320312 13.859375 27.347656 L 13.859375 28.5 C 13.859375 28.546875 13.867188 28.589844 13.882812 28.625 C 13.894531 28.65625 13.921875 28.6875 13.953125 28.699219 C 13.972656 28.714844 14 28.726562 14.035156 28.734375 L 14.140625 28.753906 L 14.140625 28.914062 L 12.8125 28.914062 L 12.8125 28.753906 C 12.847656 28.753906 12.882812 28.746094 12.925781 28.742188 C 12.960938 28.734375 12.996094 28.726562 13.023438 28.71875 C 13.074219 28.707031 13.101562 28.679688 13.121094 28.644531 C 13.136719 28.609375 13.148438 28.566406 13.148438 28.511719 L 13.148438 27.257812 C 13.148438 27.214844 13.136719 27.167969 13.113281 27.125 C 13.09375 27.085938 13.058594 27.050781 13.023438 27.023438 C 12.996094 27.007812 12.96875 26.988281 12.925781 26.980469 C 12.882812 26.96875 12.839844 26.960938 12.792969 26.960938 L 12.792969 26.800781 L 13.832031 26.746094 L 13.867188 26.78125 L 13.867188 27.089844 L 13.875 27.089844 C 13.925781 27.050781 13.972656 27.007812 14.019531 26.960938 C 14.074219 26.917969 14.125 26.875 14.179688 26.835938 C 14.238281 26.800781 14.308594 26.773438 14.390625 26.746094 C 14.472656 26.71875 14.574219 26.710938 14.671875 26.710938 C 14.90625 26.710938 15.082031 26.78125 15.199219 26.914062 C 15.320312 27.042969 15.375 27.222656 15.375 27.445312 L 15.375 28.5 C 15.375 28.554688 15.382812 28.597656 15.394531 28.625 C 15.410156 28.65625 15.445312 28.679688 15.484375 28.699219 C 15.507812 28.707031 15.535156 28.71875 15.570312 28.726562 C 15.605469 28.734375 15.640625 28.742188 15.6875 28.746094 L 15.6875 28.914062 Z M 16.910156 28.988281 C 16.769531 28.988281 16.628906 28.96875 16.496094 28.925781 C 16.363281 28.886719 16.261719 28.84375 16.183594 28.796875 L 16.121094 28.941406 L 15.953125 28.941406 L 15.925781 28.140625 L 16.085938 28.140625 C 16.105469 28.203125 16.140625 28.277344 16.199219 28.359375 C 16.246094 28.445312 16.308594 28.511719 16.371094 28.582031 C 16.445312 28.644531 16.523438 28.703125 16.609375 28.746094 C 16.699219 28.789062 16.789062 28.816406 16.886719 28.816406 C 17.019531 28.816406 17.117188 28.789062 17.179688 28.742188 C 17.242188 28.691406 17.277344 28.609375 17.277344 28.507812 C 17.277344 28.449219 17.265625 28.402344 17.238281 28.359375 C 17.210938 28.328125 17.167969 28.292969 17.117188 28.265625 C 17.0625 28.238281 17 28.210938 16.929688 28.1875 C 16.859375 28.167969 16.777344 28.148438 16.679688 28.113281 C 16.582031 28.085938 16.496094 28.058594 16.429688 28.023438 C 16.359375 27.996094 16.28125 27.945312 16.210938 27.886719 C 16.148438 27.828125 16.09375 27.761719 16.058594 27.683594 C 16.015625 27.609375 16.003906 27.511719 16.003906 27.402344 C 16.003906 27.203125 16.085938 27.035156 16.261719 26.910156 C 16.433594 26.789062 16.65625 26.726562 16.9375 26.726562 C 17.070312 26.726562 17.1875 26.738281 17.300781 26.765625 C 17.410156 26.792969 17.503906 26.824219 17.578125 26.855469 L 17.628906 26.734375 L 17.796875 26.734375 L 17.828125 27.464844 L 17.675781 27.464844 C 17.628906 27.3125 17.535156 27.1875 17.417969 27.078125 C 17.292969 26.96875 17.160156 26.910156 17.019531 26.910156 C 16.910156 26.910156 16.820312 26.933594 16.753906 26.980469 C 16.691406 27.03125 16.65625 27.089844 16.65625 27.175781 C 16.65625 27.285156 16.707031 27.359375 16.796875 27.410156 C 16.886719 27.457031 17.019531 27.503906 17.1875 27.546875 C 17.445312 27.617188 17.632812 27.707031 17.761719 27.816406 C 17.878906 27.933594 17.941406 28.078125 17.941406 28.25 C 17.941406 28.484375 17.851562 28.671875 17.664062 28.796875 C 17.453125 28.921875 17.210938 28.988281 16.910156 28.988281 Z M 16.910156 28.988281 "/>
</g>
</svg>
