<?xml version="1.0" encoding="UTF-8"?>
<svg xmlns="http://www.w3.org/2000/svg" xmlns:xlink="http://www.w3.org/1999/xlink" width="30px" height="30px" viewBox="0 0 30 30" version="1.1">
<defs>
<filter id="alpha" filterUnits="objectBoundingBox" x="0%" y="0%" width="100%" height="100%">
  <feColorMatrix type="matrix" in="SourceGraphic" values="0 0 0 0 1 0 0 0 0 1 0 0 0 0 1 0 0 0 1 0"/>
</filter>
<mask id="mask0">
  <g filter="url(#alpha)">
<rect x="0" y="0" width="30" height="30" style="fill:rgb(0%,0%,0%);fill-opacity:0.34902;stroke:none;"/>
  </g>
</mask>
<clipPath id="clip1">
  <rect x="0" y="0" width="30" height="30"/>
</clipPath>
<g id="surface6" clip-path="url(#clip1)">
<path style=" stroke:none;fill-rule:nonzero;fill:rgb(74.509804%,12.54902%,18.039216%);fill-opacity:1;" d="M 14.859375 13.914062 L 14.867188 13.90625 L 14.894531 13.882812 Z M 14.859375 13.914062 "/>
</g>
<mask id="mask1">
  <g filter="url(#alpha)">
<rect x="0" y="0" width="30" height="30" style="fill:rgb(0%,0%,0%);fill-opacity:0.34902;stroke:none;"/>
  </g>
</mask>
<clipPath id="clip2">
  <rect x="0" y="0" width="30" height="30"/>
</clipPath>
<g id="surface9" clip-path="url(#clip2)">
<path style=" stroke:none;fill-rule:nonzero;fill:rgb(74.509804%,12.54902%,18.039216%);fill-opacity:1;" d="M 14.941406 14.144531 C 14.9375 14.152344 14.929688 14.160156 14.921875 14.167969 C 14.929688 14.160156 14.933594 14.152344 14.941406 14.144531 Z M 14.941406 14.144531 "/>
</g>
<mask id="mask2">
  <g filter="url(#alpha)">
<rect x="0" y="0" width="30" height="30" style="fill:rgb(0%,0%,0%);fill-opacity:0.34902;stroke:none;"/>
  </g>
</mask>
<clipPath id="clip3">
  <rect x="0" y="0" width="30" height="30"/>
</clipPath>
<g id="surface12" clip-path="url(#clip3)">
<path style=" stroke:none;fill-rule:nonzero;fill:rgb(74.509804%,12.54902%,18.039216%);fill-opacity:1;" d="M 14.859375 13.914062 L 14.867188 13.90625 Z M 14.859375 13.914062 "/>
</g>
<linearGradient id="linear0" gradientUnits="userSpaceOnUse" x1="36.658" y1="26.611" x2="39.079" y2="25.908" gradientTransform="matrix(0.46875,0,0,0.46875,0,0)">
<stop offset="0" style="stop-color:rgb(96.470588%,60%,13.72549%);stop-opacity:1;"/>
<stop offset="0.312" style="stop-color:rgb(96.862745%,60.392157%,13.72549%);stop-opacity:1;"/>
<stop offset="0.838" style="stop-color:rgb(91.372549%,47.058824%,14.901961%);stop-opacity:1;"/>
</linearGradient>
<mask id="mask3">
  <g filter="url(#alpha)">
<rect x="0" y="0" width="30" height="30" style="fill:rgb(0%,0%,0%);fill-opacity:0.34902;stroke:none;"/>
  </g>
</mask>
<clipPath id="clip4">
  <rect x="0" y="0" width="30" height="30"/>
</clipPath>
<g id="surface16" clip-path="url(#clip4)">
<path style=" stroke:none;fill-rule:nonzero;fill:rgb(74.509804%,12.54902%,18.039216%);fill-opacity:1;" d="M 16.730469 14.277344 C 16.734375 14.277344 16.738281 14.277344 16.742188 14.277344 C 16.753906 14.28125 16.769531 14.28125 16.78125 14.28125 Z M 16.730469 14.277344 "/>
</g>
<linearGradient id="linear1" gradientUnits="userSpaceOnUse" x1="29.988" y1="34.736" x2="35.371" y2="26.637" gradientTransform="matrix(0.46875,0,0,0.46875,0,0)">
<stop offset="0.323" style="stop-color:rgb(61.960784%,12.54902%,39.215686%);stop-opacity:1;"/>
<stop offset="0.63" style="stop-color:rgb(78.823529%,12.54902%,21.568627%);stop-opacity:1;"/>
<stop offset="0.751" style="stop-color:rgb(80.392157%,13.72549%,20.784314%);stop-opacity:1;"/>
<stop offset="1" style="stop-color:rgb(91.372549%,47.058824%,14.901961%);stop-opacity:1;"/>
</linearGradient>
<linearGradient id="linear2" gradientUnits="userSpaceOnUse" x1="31.688" y1="35.589" x2="34.661" y2="31.015" gradientTransform="matrix(0.46875,0,0,0.46875,0,0)">
<stop offset="0" style="stop-color:rgb(15.686275%,14.901961%,38.431373%);stop-opacity:1;"/>
<stop offset="0.095" style="stop-color:rgb(40%,18.039216%,55.294118%);stop-opacity:1;"/>
<stop offset="0.788" style="stop-color:rgb(62.352941%,12.54902%,39.215686%);stop-opacity:1;"/>
<stop offset="0.949" style="stop-color:rgb(80.392157%,12.54902%,19.607843%);stop-opacity:1;"/>
</linearGradient>
<linearGradient id="linear3" gradientUnits="userSpaceOnUse" x1="29.996" y1="35.063" x2="35.525" y2="26.622" gradientTransform="matrix(0.46875,0,0,0.46875,0,0)">
<stop offset="0.323" style="stop-color:rgb(61.960784%,12.54902%,39.215686%);stop-opacity:1;"/>
<stop offset="0.63" style="stop-color:rgb(78.823529%,12.54902%,21.568627%);stop-opacity:1;"/>
<stop offset="0.751" style="stop-color:rgb(80.392157%,13.72549%,20.784314%);stop-opacity:1;"/>
<stop offset="1" style="stop-color:rgb(91.372549%,47.058824%,14.901961%);stop-opacity:1;"/>
</linearGradient>
<linearGradient id="linear4" gradientUnits="userSpaceOnUse" x1="30.467" y1="35.32" x2="33.405" y2="30.617" gradientTransform="matrix(0.46875,0,0,0.46875,0,0)">
<stop offset="0" style="stop-color:rgb(15.686275%,14.901961%,38.431373%);stop-opacity:1;"/>
<stop offset="0.095" style="stop-color:rgb(40%,18.039216%,55.294118%);stop-opacity:1;"/>
<stop offset="0.788" style="stop-color:rgb(62.352941%,12.54902%,39.215686%);stop-opacity:1;"/>
<stop offset="0.949" style="stop-color:rgb(80.392157%,12.54902%,19.607843%);stop-opacity:1;"/>
</linearGradient>
<linearGradient id="linear5" gradientUnits="userSpaceOnUse" x1="31.305" y1="35.465" x2="36.542" y2="27.566" gradientTransform="matrix(0.46875,0,0,0.46875,0,0)">
<stop offset="0.323" style="stop-color:rgb(61.960784%,12.54902%,39.215686%);stop-opacity:1;"/>
<stop offset="0.63" style="stop-color:rgb(78.823529%,12.54902%,21.568627%);stop-opacity:1;"/>
<stop offset="0.751" style="stop-color:rgb(80.392157%,13.72549%,20.784314%);stop-opacity:1;"/>
<stop offset="1" style="stop-color:rgb(91.372549%,47.058824%,14.901961%);stop-opacity:1;"/>
</linearGradient>
<linearGradient id="linear6" gradientUnits="userSpaceOnUse" x1="31.191" y1="34.931" x2="36.168" y2="27.264" gradientTransform="matrix(0.46875,0,0,0.46875,0,0)">
<stop offset="0.323" style="stop-color:rgb(61.960784%,12.54902%,39.215686%);stop-opacity:1;"/>
<stop offset="0.63" style="stop-color:rgb(78.823529%,12.54902%,21.568627%);stop-opacity:1;"/>
<stop offset="0.751" style="stop-color:rgb(80.392157%,13.72549%,20.784314%);stop-opacity:1;"/>
<stop offset="1" style="stop-color:rgb(91.372549%,47.058824%,14.901961%);stop-opacity:1;"/>
</linearGradient>
<linearGradient id="linear7" gradientUnits="userSpaceOnUse" x1="30.759" y1="25.77" x2="28.143" y2="24.106" gradientTransform="matrix(0.46875,0,0,0.46875,0,0)">
<stop offset="0" style="stop-color:rgb(96.470588%,60%,13.72549%);stop-opacity:1;"/>
<stop offset="0.312" style="stop-color:rgb(96.862745%,60.392157%,13.72549%);stop-opacity:1;"/>
<stop offset="0.838" style="stop-color:rgb(91.372549%,47.058824%,14.901961%);stop-opacity:1;"/>
</linearGradient>
<mask id="mask4">
  <g filter="url(#alpha)">
<rect x="0" y="0" width="30" height="30" style="fill:rgb(0%,0%,0%);fill-opacity:0.34902;stroke:none;"/>
  </g>
</mask>
<clipPath id="clip5">
  <rect x="0" y="0" width="30" height="30"/>
</clipPath>
<g id="surface22" clip-path="url(#clip5)">
<path style=" stroke:none;fill-rule:nonzero;fill:rgb(74.509804%,12.54902%,18.039216%);fill-opacity:1;" d="M 14.089844 13.835938 L 14.082031 13.832031 C 14.066406 13.824219 14.054688 13.820312 14.042969 13.8125 Z M 14.089844 13.835938 "/>
</g>
<linearGradient id="linear8" gradientUnits="userSpaceOnUse" x1="35.473" y1="37.483" x2="36.267" y2="26.559" gradientTransform="matrix(0.46875,0,0,0.46875,0,0)">
<stop offset="0.323" style="stop-color:rgb(61.960784%,12.54902%,39.215686%);stop-opacity:1;"/>
<stop offset="0.63" style="stop-color:rgb(78.823529%,12.54902%,21.568627%);stop-opacity:1;"/>
<stop offset="0.751" style="stop-color:rgb(80.392157%,13.72549%,20.784314%);stop-opacity:1;"/>
<stop offset="1" style="stop-color:rgb(91.372549%,47.058824%,14.901961%);stop-opacity:1;"/>
</linearGradient>
<linearGradient id="linear9" gradientUnits="userSpaceOnUse" x1="32.144" y1="36.3" x2="32.557" y2="30.218" gradientTransform="matrix(0.46875,0,0,0.46875,0,0)">
<stop offset="0" style="stop-color:rgb(15.686275%,14.901961%,38.431373%);stop-opacity:1;"/>
<stop offset="0.095" style="stop-color:rgb(40%,18.039216%,55.294118%);stop-opacity:1;"/>
<stop offset="0.788" style="stop-color:rgb(62.352941%,12.54902%,39.215686%);stop-opacity:1;"/>
<stop offset="0.949" style="stop-color:rgb(80.392157%,12.54902%,19.607843%);stop-opacity:1;"/>
</linearGradient>
<linearGradient id="linear10" gradientUnits="userSpaceOnUse" x1="34.673" y1="37.143" x2="35.461" y2="25.837" gradientTransform="matrix(0.46875,0,0,0.46875,0,0)">
<stop offset="0.323" style="stop-color:rgb(61.960784%,12.54902%,39.215686%);stop-opacity:1;"/>
<stop offset="0.63" style="stop-color:rgb(78.823529%,12.54902%,21.568627%);stop-opacity:1;"/>
<stop offset="0.751" style="stop-color:rgb(80.392157%,13.72549%,20.784314%);stop-opacity:1;"/>
<stop offset="1" style="stop-color:rgb(91.372549%,47.058824%,14.901961%);stop-opacity:1;"/>
</linearGradient>
<linearGradient id="linear11" gradientUnits="userSpaceOnUse" x1="33.187" y1="36.412" x2="33.563" y2="30.266" gradientTransform="matrix(0.46875,0,0,0.46875,0,0)">
<stop offset="0" style="stop-color:rgb(15.686275%,14.901961%,38.431373%);stop-opacity:1;"/>
<stop offset="0.095" style="stop-color:rgb(40%,18.039216%,55.294118%);stop-opacity:1;"/>
<stop offset="0.788" style="stop-color:rgb(62.352941%,12.54902%,39.215686%);stop-opacity:1;"/>
<stop offset="0.949" style="stop-color:rgb(80.392157%,12.54902%,19.607843%);stop-opacity:1;"/>
</linearGradient>
<linearGradient id="linear12" gradientUnits="userSpaceOnUse" x1="33.224" y1="36.934" x2="33.992" y2="26.306" gradientTransform="matrix(0.46875,0,0,0.46875,0,0)">
<stop offset="0.323" style="stop-color:rgb(61.960784%,12.54902%,39.215686%);stop-opacity:1;"/>
<stop offset="0.63" style="stop-color:rgb(78.823529%,12.54902%,21.568627%);stop-opacity:1;"/>
<stop offset="0.751" style="stop-color:rgb(80.392157%,13.72549%,20.784314%);stop-opacity:1;"/>
<stop offset="1" style="stop-color:rgb(91.372549%,47.058824%,14.901961%);stop-opacity:1;"/>
</linearGradient>
<linearGradient id="linear13" gradientUnits="userSpaceOnUse" x1="34.133" y1="36.96" x2="34.822" y2="26.773" gradientTransform="matrix(0.46875,0,0,0.46875,0,0)">
<stop offset="0.323" style="stop-color:rgb(61.960784%,12.54902%,39.215686%);stop-opacity:1;"/>
<stop offset="0.63" style="stop-color:rgb(78.823529%,12.54902%,21.568627%);stop-opacity:1;"/>
<stop offset="0.751" style="stop-color:rgb(80.392157%,13.72549%,20.784314%);stop-opacity:1;"/>
<stop offset="1" style="stop-color:rgb(91.372549%,47.058824%,14.901961%);stop-opacity:1;"/>
</linearGradient>
<mask id="mask5">
  <g filter="url(#alpha)">
<rect x="0" y="0" width="30" height="30" style="fill:rgb(0%,0%,0%);fill-opacity:0.34902;stroke:none;"/>
  </g>
</mask>
<clipPath id="clip6">
  <rect x="0" y="0" width="30" height="30"/>
</clipPath>
<g id="surface25" clip-path="url(#clip6)">
<path style=" stroke:none;fill-rule:nonzero;fill:rgb(74.509804%,12.54902%,18.039216%);fill-opacity:1;" d="M 14.097656 14.113281 L 14.128906 14.125 C 14.117188 14.121094 14.105469 14.117188 14.097656 14.113281 Z M 14.097656 14.113281 "/>
</g>
<linearGradient id="linear14" gradientUnits="userSpaceOnUse" x1="32.555" y1="35.525" x2="32.586" y2="26.835" gradientTransform="matrix(0.46875,0,0,0.46875,0,0)">
<stop offset="0.323" style="stop-color:rgb(61.960784%,12.54902%,39.215686%);stop-opacity:1;"/>
<stop offset="0.63" style="stop-color:rgb(78.823529%,12.54902%,21.568627%);stop-opacity:1;"/>
<stop offset="0.751" style="stop-color:rgb(80.392157%,13.72549%,20.784314%);stop-opacity:1;"/>
<stop offset="1" style="stop-color:rgb(91.372549%,47.058824%,14.901961%);stop-opacity:1;"/>
</linearGradient>
<mask id="mask6">
  <g filter="url(#alpha)">
<rect x="0" y="0" width="30" height="30" style="fill:rgb(0%,0%,0%);fill-opacity:0.34902;stroke:none;"/>
  </g>
</mask>
<clipPath id="clip7">
  <rect x="0" y="0" width="30" height="30"/>
</clipPath>
<g id="surface28" clip-path="url(#clip7)">
<path style=" stroke:none;fill-rule:nonzero;fill:rgb(74.509804%,12.54902%,18.039216%);fill-opacity:1;" d="M 14.089844 13.835938 L 14.078125 13.832031 Z M 14.089844 13.835938 "/>
</g>
<linearGradient id="linear15" gradientUnits="userSpaceOnUse" x1="32.673" y1="35.301" x2="32.55" y2="26.638" gradientTransform="matrix(0.46875,0,0,0.46875,0,0)">
<stop offset="0.323" style="stop-color:rgb(61.960784%,12.54902%,39.215686%);stop-opacity:1;"/>
<stop offset="0.63" style="stop-color:rgb(78.823529%,12.54902%,21.568627%);stop-opacity:1;"/>
<stop offset="0.751" style="stop-color:rgb(80.392157%,13.72549%,20.784314%);stop-opacity:1;"/>
<stop offset="1" style="stop-color:rgb(91.372549%,47.058824%,14.901961%);stop-opacity:1;"/>
</linearGradient>
</defs>
<g id="surface1">
<path style=" stroke:none;fill-rule:nonzero;fill:rgb(74.509804%,12.54902%,18.039216%);fill-opacity:1;" d="M 14.859375 13.914062 L 14.867188 13.90625 L 14.894531 13.882812 Z M 14.859375 13.914062 "/>
<use xlink:href="#surface6" mask="url(#mask0)"/>
<path style=" stroke:none;fill-rule:nonzero;fill:rgb(74.509804%,12.54902%,18.039216%);fill-opacity:1;" d="M 14.941406 14.144531 C 14.9375 14.152344 14.929688 14.160156 14.921875 14.167969 C 14.929688 14.160156 14.933594 14.152344 14.941406 14.144531 Z M 14.941406 14.144531 "/>
<use xlink:href="#surface9" mask="url(#mask1)"/>
<path style=" stroke:none;fill-rule:nonzero;fill:rgb(74.509804%,12.54902%,18.039216%);fill-opacity:1;" d="M 14.859375 13.914062 L 14.867188 13.90625 Z M 14.859375 13.914062 "/>
<use xlink:href="#surface12" mask="url(#mask2)"/>
<path style=" stroke:none;fill-rule:nonzero;fill:rgb(0%,0%,0%);fill-opacity:1;" d="M 3.617188 10.789062 L 4.863281 10.789062 C 4.949219 10.789062 5.011719 10.808594 5.046875 10.84375 C 5.078125 10.875 5.097656 10.914062 5.101562 10.957031 C 5.105469 11.003906 5.113281 11.050781 5.125 11.097656 L 5.15625 11.347656 C 5.167969 11.429688 5.183594 11.515625 5.191406 11.601562 C 5.25 11.921875 5.292969 12.25 5.332031 12.582031 C 5.371094 12.914062 5.417969 13.242188 5.476562 13.570312 C 5.496094 13.671875 5.511719 13.773438 5.519531 13.882812 C 5.53125 13.988281 5.546875 14.09375 5.566406 14.195312 L 5.582031 14.273438 C 5.585938 14.296875 5.601562 14.320312 5.621094 14.332031 C 5.632812 14.339844 5.640625 14.34375 5.644531 14.347656 C 5.652344 14.355469 5.667969 14.351562 5.683594 14.339844 C 5.722656 14.332031 5.757812 14.300781 5.78125 14.25 C 5.808594 14.199219 5.832031 14.152344 5.859375 14.113281 C 5.917969 13.996094 5.976562 13.878906 6.035156 13.769531 C 6.089844 13.652344 6.152344 13.53125 6.21875 13.414062 C 6.382812 13.105469 6.542969 12.792969 6.707031 12.480469 C 6.917969 12.085938 7.125 11.691406 7.328125 11.296875 C 7.375 11.214844 7.417969 11.132812 7.457031 11.050781 C 7.476562 11.007812 7.5 10.96875 7.527344 10.925781 C 7.554688 10.886719 7.589844 10.851562 7.632812 10.828125 C 7.667969 10.800781 7.714844 10.789062 7.757812 10.789062 L 9.074219 10.789062 C 9.125 10.789062 9.160156 10.800781 9.179688 10.820312 C 9.230469 10.851562 9.246094 10.910156 9.226562 10.996094 C 9.210938 11.078125 9.195312 11.164062 9.179688 11.25 L 8.949219 12.398438 L 8.375 15.246094 L 8.246094 15.910156 C 8.238281 15.964844 8.222656 16.023438 8.207031 16.078125 C 8.195312 16.125 8.167969 16.164062 8.132812 16.195312 C 8.09375 16.21875 8.054688 16.234375 8.007812 16.238281 L 7.28125 16.238281 C 7.25 16.230469 7.214844 16.222656 7.183594 16.21875 C 7.15625 16.210938 7.136719 16.195312 7.121094 16.164062 C 7.105469 16.132812 7.101562 16.097656 7.105469 16.0625 L 7.136719 15.933594 L 7.214844 15.542969 L 7.613281 13.574219 C 7.621094 13.503906 7.632812 13.4375 7.640625 13.378906 C 7.65625 13.3125 7.671875 13.246094 7.679688 13.179688 L 7.710938 13.054688 C 7.71875 13.011719 7.726562 12.96875 7.726562 12.925781 C 7.722656 12.886719 7.722656 12.847656 7.726562 12.808594 C 7.734375 12.769531 7.730469 12.746094 7.703125 12.734375 C 7.6875 12.730469 7.675781 12.730469 7.664062 12.742188 L 7.640625 12.765625 C 7.613281 12.785156 7.59375 12.8125 7.574219 12.839844 L 7.527344 12.917969 C 7.480469 12.996094 7.433594 13.074219 7.390625 13.15625 C 7.347656 13.238281 7.300781 13.320312 7.25 13.398438 L 7.207031 13.492188 C 7.195312 13.523438 7.179688 13.554688 7.160156 13.582031 C 7.121094 13.648438 7.082031 13.714844 7.042969 13.78125 C 7.011719 13.851562 6.976562 13.917969 6.9375 13.980469 C 6.925781 14 6.917969 14.015625 6.914062 14.035156 C 6.910156 14.050781 6.902344 14.066406 6.890625 14.082031 C 6.859375 14.128906 6.832031 14.175781 6.808594 14.226562 C 6.785156 14.28125 6.757812 14.332031 6.722656 14.378906 C 6.691406 14.425781 6.664062 14.476562 6.640625 14.523438 C 6.617188 14.578125 6.59375 14.628906 6.5625 14.679688 C 6.46875 14.828125 6.386719 14.976562 6.308594 15.128906 C 6.234375 15.277344 6.152344 15.425781 6.074219 15.574219 C 6.058594 15.585938 6.046875 15.601562 6.042969 15.621094 C 6.042969 15.636719 6.035156 15.652344 6.019531 15.664062 C 5.984375 15.722656 5.949219 15.78125 5.917969 15.84375 C 5.894531 15.898438 5.863281 15.953125 5.828125 16.011719 C 5.808594 16.042969 5.789062 16.078125 5.765625 16.109375 C 5.746094 16.136719 5.722656 16.164062 5.699219 16.1875 C 5.671875 16.203125 5.644531 16.21875 5.613281 16.222656 C 5.578125 16.226562 5.546875 16.230469 5.515625 16.238281 L 5.335938 16.238281 C 5.300781 16.238281 5.257812 16.242188 5.207031 16.246094 L 5.0625 16.246094 C 5.015625 16.246094 4.972656 16.246094 4.933594 16.238281 C 4.890625 16.234375 4.863281 16.222656 4.847656 16.210938 C 4.816406 16.1875 4.792969 16.160156 4.777344 16.125 C 4.773438 16.082031 4.761719 16.042969 4.75 16.003906 C 4.738281 15.941406 4.730469 15.878906 4.726562 15.820312 C 4.722656 15.753906 4.710938 15.691406 4.695312 15.628906 L 4.6875 15.558594 C 4.671875 15.496094 4.660156 15.433594 4.65625 15.367188 C 4.652344 15.300781 4.640625 15.234375 4.625 15.167969 L 4.625 15.128906 C 4.625 15.113281 4.625 15.097656 4.617188 15.082031 C 4.601562 15.035156 4.59375 14.988281 4.585938 14.9375 C 4.582031 14.886719 4.574219 14.835938 4.566406 14.785156 L 4.566406 14.746094 C 4.566406 14.734375 4.5625 14.722656 4.558594 14.707031 C 4.546875 14.660156 4.539062 14.605469 4.535156 14.554688 C 4.535156 14.503906 4.527344 14.453125 4.511719 14.402344 C 4.488281 14.296875 4.472656 14.1875 4.457031 14.082031 C 4.449219 13.972656 4.433594 13.859375 4.410156 13.753906 C 4.390625 13.625 4.375 13.496094 4.359375 13.363281 C 4.347656 13.230469 4.324219 13.105469 4.289062 12.980469 C 4.28125 12.917969 4.265625 12.859375 4.242188 12.804688 C 4.234375 12.792969 4.222656 12.785156 4.210938 12.78125 C 4.207031 12.769531 4.195312 12.769531 4.183594 12.78125 C 4.152344 12.796875 4.128906 12.824219 4.121094 12.855469 C 4.117188 12.894531 4.105469 12.929688 4.089844 12.964844 C 4.070312 13 4.058594 13.039062 4.050781 13.078125 L 4.035156 13.195312 C 4.027344 13.25 4.015625 13.304688 4 13.363281 C 3.988281 13.417969 3.976562 13.472656 3.960938 13.53125 L 3.554688 15.566406 L 3.476562 15.941406 L 3.445312 16.0625 C 3.445312 16.101562 3.425781 16.136719 3.402344 16.164062 C 3.375 16.199219 3.332031 16.222656 3.269531 16.230469 C 3.234375 16.242188 3.195312 16.246094 3.15625 16.246094 C 3.117188 16.242188 3.074219 16.238281 3.035156 16.238281 L 2.484375 16.238281 C 2.441406 16.238281 2.40625 16.222656 2.375 16.195312 C 2.351562 16.167969 2.339844 16.128906 2.34375 16.078125 L 2.375 15.910156 L 2.507812 15.238281 L 3.078125 12.390625 L 3.292969 11.316406 C 3.300781 11.285156 3.304688 11.25 3.308594 11.210938 C 3.328125 11.128906 3.347656 11.046875 3.371094 10.964844 C 3.382812 10.933594 3.394531 10.902344 3.410156 10.875 C 3.445312 10.835938 3.492188 10.808594 3.546875 10.796875 C 3.5625 10.792969 3.574219 10.792969 3.578125 10.796875 C 3.589844 10.796875 3.601562 10.792969 3.617188 10.789062 Z M 12.765625 15.941406 C 12.765625 15.996094 12.757812 16.054688 12.75 16.109375 C 12.742188 16.164062 12.703125 16.207031 12.648438 16.222656 C 12.613281 16.238281 12.574219 16.246094 12.535156 16.246094 L 11.859375 16.246094 C 11.828125 16.246094 11.792969 16.230469 11.769531 16.210938 C 11.738281 16.191406 11.71875 16.160156 11.707031 16.125 C 11.699219 16.085938 11.679688 16.054688 11.65625 16.027344 C 11.644531 16.015625 11.632812 16.007812 11.617188 16.003906 C 11.605469 15.992188 11.589844 15.988281 11.5625 15.996094 C 11.535156 16.003906 11.503906 16.015625 11.476562 16.03125 C 11.453125 16.046875 11.425781 16.0625 11.402344 16.070312 C 11.371094 16.09375 11.335938 16.109375 11.300781 16.125 C 11.199219 16.175781 11.09375 16.21875 10.980469 16.246094 C 10.90625 16.261719 10.828125 16.28125 10.75 16.300781 C 10.714844 16.3125 10.675781 16.316406 10.636719 16.316406 L 10.535156 16.332031 L 10.492188 16.332031 C 10.476562 16.335938 10.460938 16.339844 10.445312 16.339844 L 10.359375 16.339844 C 10.308594 16.347656 10.257812 16.347656 10.207031 16.339844 L 10.140625 16.339844 C 10.105469 16.328125 10.066406 16.324219 10.03125 16.324219 C 10 16.328125 9.96875 16.328125 9.941406 16.316406 L 9.800781 16.285156 C 9.757812 16.28125 9.71875 16.269531 9.679688 16.246094 C 9.554688 16.199219 9.441406 16.125 9.34375 16.03125 C 9.25 15.933594 9.191406 15.808594 9.167969 15.671875 C 9.15625 15.636719 9.148438 15.597656 9.144531 15.558594 C 9.144531 15.519531 9.140625 15.472656 9.136719 15.429688 C 9.132812 15.402344 9.132812 15.378906 9.136719 15.351562 C 9.144531 15.328125 9.152344 15.300781 9.152344 15.277344 C 9.152344 15.261719 9.152344 15.230469 9.160156 15.183594 C 9.167969 15.132812 9.179688 15.097656 9.191406 15.078125 C 9.207031 15.035156 9.21875 14.992188 9.226562 14.945312 L 9.304688 14.777344 C 9.410156 14.574219 9.570312 14.402344 9.765625 14.28125 C 9.890625 14.203125 10.050781 14.136719 10.238281 14.082031 C 10.308594 14.054688 10.382812 14.039062 10.453125 14.027344 C 10.527344 14.015625 10.601562 14.003906 10.675781 13.988281 C 10.714844 13.980469 10.757812 13.972656 10.804688 13.972656 C 10.855469 13.96875 10.90625 13.960938 10.949219 13.949219 C 10.984375 13.941406 11.023438 13.9375 11.058594 13.945312 C 11.09375 13.945312 11.132812 13.9375 11.179688 13.929688 C 11.214844 13.917969 11.25 13.914062 11.289062 13.914062 C 11.324219 13.914062 11.359375 13.90625 11.402344 13.898438 C 11.515625 13.871094 11.617188 13.851562 11.707031 13.835938 C 11.804688 13.816406 11.898438 13.769531 11.984375 13.699219 C 12.035156 13.652344 12.074219 13.601562 12.105469 13.546875 C 12.109375 13.535156 12.113281 13.519531 12.113281 13.507812 C 12.113281 13.496094 12.117188 13.488281 12.121094 13.476562 C 12.132812 13.464844 12.136719 13.453125 12.136719 13.429688 C 12.140625 13.414062 12.144531 13.398438 12.152344 13.382812 L 12.152344 13.269531 C 12.132812 13.117188 12.046875 13.011719 11.890625 12.957031 C 11.839844 12.9375 11.785156 12.929688 11.730469 12.925781 C 11.667969 12.914062 11.601562 12.914062 11.539062 12.917969 C 11.472656 12.917969 11.40625 12.921875 11.339844 12.933594 C 11.28125 12.945312 11.226562 12.957031 11.179688 12.972656 C 11.144531 12.980469 11.113281 12.996094 11.082031 13.015625 C 11.007812 13.050781 10.945312 13.097656 10.890625 13.15625 C 10.859375 13.183594 10.832031 13.21875 10.8125 13.253906 C 10.78125 13.300781 10.75 13.351562 10.722656 13.398438 C 10.691406 13.449219 10.644531 13.480469 10.589844 13.492188 C 10.546875 13.503906 10.503906 13.507812 10.460938 13.507812 L 10.03125 13.507812 C 10.007812 13.507812 9.976562 13.511719 9.949219 13.515625 C 9.925781 13.515625 9.90625 13.511719 9.886719 13.507812 L 9.816406 13.507812 C 9.804688 13.5 9.792969 13.5 9.78125 13.5 C 9.765625 13.5 9.75 13.496094 9.742188 13.484375 C 9.707031 13.472656 9.683594 13.441406 9.679688 13.382812 C 9.679688 13.359375 9.683594 13.332031 9.695312 13.308594 C 9.726562 13.230469 9.761719 13.160156 9.800781 13.085938 C 9.832031 13.035156 9.863281 12.988281 9.894531 12.949219 L 9.957031 12.871094 L 10.015625 12.796875 C 10.066406 12.738281 10.128906 12.6875 10.199219 12.632812 C 10.222656 12.625 10.238281 12.613281 10.253906 12.597656 C 10.285156 12.574219 10.308594 12.558594 10.332031 12.542969 C 10.359375 12.527344 10.386719 12.511719 10.414062 12.496094 C 10.511719 12.441406 10.609375 12.398438 10.714844 12.367188 C 10.820312 12.332031 10.925781 12.296875 11.035156 12.265625 C 11.101562 12.253906 11.167969 12.242188 11.234375 12.238281 C 11.300781 12.230469 11.367188 12.222656 11.441406 12.207031 C 11.472656 12.199219 11.5 12.199219 11.53125 12.207031 C 11.574219 12.210938 11.601562 12.207031 11.617188 12.199219 C 11.824219 12.195312 12.023438 12.199219 12.207031 12.222656 C 12.394531 12.242188 12.558594 12.28125 12.703125 12.335938 C 12.851562 12.390625 12.972656 12.46875 13.0625 12.566406 C 13.160156 12.65625 13.222656 12.777344 13.253906 12.925781 C 13.269531 13.011719 13.269531 13.113281 13.253906 13.222656 C 13.238281 13.335938 13.21875 13.453125 13.195312 13.570312 L 12.847656 15.277344 C 12.832031 15.371094 12.816406 15.472656 12.796875 15.574219 C 12.773438 15.671875 12.765625 15.761719 12.773438 15.84375 C 12.773438 15.855469 12.769531 15.875 12.765625 15.894531 Z M 11.875 14.761719 C 11.886719 14.734375 11.894531 14.707031 11.898438 14.679688 C 11.90625 14.644531 11.90625 14.613281 11.90625 14.585938 C 11.90625 14.554688 11.910156 14.527344 11.914062 14.503906 C 11.921875 14.480469 11.910156 14.453125 11.890625 14.441406 C 11.871094 14.421875 11.835938 14.410156 11.785156 14.410156 C 11.765625 14.414062 11.75 14.421875 11.730469 14.425781 C 11.710938 14.425781 11.691406 14.429688 11.671875 14.433594 C 11.632812 14.445312 11.59375 14.453125 11.554688 14.457031 C 11.515625 14.460938 11.472656 14.46875 11.425781 14.480469 C 11.402344 14.484375 11.378906 14.488281 11.355469 14.488281 C 11.285156 14.503906 11.214844 14.511719 11.148438 14.519531 C 11.082031 14.523438 11.015625 14.535156 10.949219 14.554688 L 10.828125 14.585938 C 10.792969 14.59375 10.753906 14.601562 10.722656 14.617188 C 10.605469 14.664062 10.5 14.730469 10.40625 14.824219 C 10.316406 14.914062 10.261719 15.042969 10.246094 15.207031 C 10.238281 15.28125 10.253906 15.355469 10.292969 15.421875 C 10.3125 15.476562 10.355469 15.523438 10.421875 15.558594 C 10.488281 15.589844 10.5625 15.613281 10.644531 15.628906 C 10.726562 15.644531 10.8125 15.648438 10.90625 15.644531 C 10.996094 15.632812 11.089844 15.617188 11.179688 15.589844 C 11.324219 15.546875 11.441406 15.484375 11.53125 15.398438 C 11.628906 15.304688 11.710938 15.195312 11.777344 15.0625 C 11.792969 15.023438 11.804688 14.988281 11.816406 14.953125 C 11.824219 14.914062 11.839844 14.871094 11.859375 14.832031 Z M 21.640625 14.234375 C 21.640625 14.28125 21.628906 14.328125 21.609375 14.371094 C 21.589844 14.421875 21.566406 14.457031 21.535156 14.472656 C 21.5 14.496094 21.460938 14.511719 21.417969 14.519531 L 21.25 14.53125 L 21.074219 14.53125 C 21.023438 14.527344 20.972656 14.523438 20.921875 14.523438 L 18.949219 14.523438 C 18.878906 14.523438 18.816406 14.550781 18.769531 14.601562 C 18.753906 14.621094 18.738281 14.640625 18.726562 14.664062 C 18.710938 14.6875 18.703125 14.710938 18.703125 14.738281 C 18.707031 14.769531 18.707031 14.800781 18.703125 14.832031 C 18.703125 14.855469 18.703125 14.886719 18.710938 14.914062 C 18.726562 15.039062 18.753906 15.140625 18.792969 15.222656 C 18.839844 15.296875 18.90625 15.367188 18.992188 15.429688 C 19.027344 15.453125 19.066406 15.472656 19.109375 15.480469 C 19.152344 15.488281 19.195312 15.496094 19.238281 15.511719 C 19.355469 15.539062 19.472656 15.542969 19.589844 15.527344 L 19.660156 15.527344 C 19.707031 15.519531 19.757812 15.507812 19.804688 15.496094 L 19.941406 15.453125 C 20 15.425781 20.0625 15.394531 20.132812 15.351562 C 20.207031 15.3125 20.261719 15.269531 20.300781 15.230469 C 20.332031 15.195312 20.367188 15.160156 20.402344 15.128906 C 20.433594 15.097656 20.472656 15.070312 20.515625 15.054688 C 20.578125 15.027344 20.648438 15.015625 20.714844 15.023438 L 21.03125 15.023438 C 21.058594 15.015625 21.09375 15.019531 21.121094 15.03125 L 21.199219 15.03125 C 21.234375 15.035156 21.265625 15.050781 21.296875 15.070312 C 21.3125 15.078125 21.316406 15.101562 21.3125 15.136719 C 21.3125 15.167969 21.304688 15.203125 21.289062 15.230469 C 21.25 15.300781 21.207031 15.363281 21.160156 15.421875 C 21.117188 15.476562 21.074219 15.535156 21.023438 15.589844 C 20.878906 15.757812 20.726562 15.894531 20.5625 15.996094 C 20.378906 16.105469 20.179688 16.195312 19.972656 16.253906 C 19.910156 16.277344 19.851562 16.289062 19.796875 16.292969 C 19.742188 16.296875 19.679688 16.308594 19.613281 16.324219 C 19.589844 16.328125 19.566406 16.328125 19.542969 16.324219 C 19.523438 16.324219 19.503906 16.328125 19.484375 16.332031 L 19.398438 16.332031 C 19.371094 16.34375 19.335938 16.34375 19.308594 16.339844 C 19.277344 16.339844 19.25 16.335938 19.222656 16.332031 C 19.1875 16.328125 19.152344 16.328125 19.117188 16.332031 C 19.082031 16.335938 19.046875 16.332031 19.015625 16.324219 C 18.988281 16.3125 18.960938 16.308594 18.933594 16.308594 C 18.90625 16.308594 18.878906 16.304688 18.855469 16.292969 C 18.796875 16.28125 18.742188 16.269531 18.6875 16.253906 C 18.636719 16.246094 18.589844 16.226562 18.550781 16.203125 C 18.5 16.183594 18.453125 16.164062 18.402344 16.148438 C 18.359375 16.128906 18.320312 16.105469 18.28125 16.078125 C 18.140625 15.980469 18.019531 15.863281 17.914062 15.726562 C 17.78125 15.535156 17.699219 15.316406 17.667969 15.082031 C 17.667969 15.023438 17.660156 14.960938 17.644531 14.898438 L 17.644531 14.847656 C 17.652344 14.828125 17.652344 14.804688 17.652344 14.785156 C 17.648438 14.722656 17.648438 14.65625 17.652344 14.585938 L 17.683594 14.371094 C 17.691406 14.34375 17.691406 14.316406 17.691406 14.289062 C 17.695312 14.257812 17.703125 14.230469 17.714844 14.203125 L 17.738281 14.113281 L 17.800781 13.929688 C 17.835938 13.839844 17.867188 13.757812 17.898438 13.675781 C 17.929688 13.59375 17.96875 13.515625 18.011719 13.445312 C 18.339844 12.914062 18.789062 12.539062 19.359375 12.320312 C 19.4375 12.289062 19.511719 12.269531 19.589844 12.257812 C 19.667969 12.246094 19.75 12.226562 19.835938 12.207031 C 19.875 12.199219 19.914062 12.199219 19.949219 12.199219 C 19.984375 12.199219 20.023438 12.195312 20.066406 12.191406 C 20.324219 12.1875 20.542969 12.214844 20.714844 12.28125 C 20.890625 12.34375 21.039062 12.425781 21.167969 12.527344 C 21.207031 12.558594 21.246094 12.59375 21.28125 12.632812 C 21.324219 12.671875 21.355469 12.707031 21.382812 12.75 C 21.390625 12.773438 21.410156 12.796875 21.433594 12.808594 C 21.464844 12.867188 21.492188 12.925781 21.511719 12.988281 C 21.539062 13.042969 21.566406 13.101562 21.597656 13.164062 C 21.609375 13.207031 21.621094 13.257812 21.625 13.308594 C 21.636719 13.355469 21.648438 13.40625 21.65625 13.460938 C 21.667969 13.527344 21.671875 13.597656 21.671875 13.667969 L 21.6875 13.882812 C 21.6875 13.921875 21.679688 13.96875 21.664062 14.019531 C 21.65625 14.0625 21.652344 14.105469 21.65625 14.148438 Z M 20.578125 13.78125 C 20.625 13.730469 20.636719 13.671875 20.625 13.597656 C 20.617188 13.542969 20.609375 13.488281 20.601562 13.429688 C 20.5625 13.304688 20.484375 13.195312 20.378906 13.117188 C 20.277344 13.039062 20.121094 13 19.910156 12.996094 C 19.894531 13.003906 19.875 13.007812 19.859375 13.003906 C 19.839844 12.996094 19.820312 12.996094 19.804688 13.003906 C 19.773438 13.011719 19.742188 13.019531 19.710938 13.023438 C 19.683594 13.023438 19.65625 13.03125 19.628906 13.039062 C 19.359375 13.117188 19.128906 13.300781 18.992188 13.546875 C 18.972656 13.574219 18.957031 13.609375 18.949219 13.644531 C 18.9375 13.675781 18.933594 13.707031 18.933594 13.738281 C 18.933594 13.769531 18.945312 13.792969 18.96875 13.8125 C 19.007812 13.839844 19.058594 13.851562 19.132812 13.851562 L 20.410156 13.851562 C 20.492188 13.847656 20.546875 13.824219 20.578125 13.78125 Z M 24.941406 12.199219 C 25.25 12.1875 25.492188 12.230469 25.675781 12.328125 C 25.867188 12.425781 26 12.566406 26.074219 12.757812 C 26.101562 12.8125 26.117188 12.875 26.121094 12.941406 C 26.132812 13 26.140625 13.066406 26.144531 13.132812 C 26.148438 13.171875 26.148438 13.207031 26.144531 13.246094 C 26.140625 13.28125 26.140625 13.320312 26.144531 13.355469 C 26.132812 13.382812 26.132812 13.40625 26.136719 13.414062 C 26.132812 13.488281 26.121094 13.5625 26.105469 13.636719 C 26.089844 13.714844 26.074219 13.789062 26.058594 13.859375 L 25.929688 14.539062 L 25.675781 15.78125 C 25.65625 15.878906 25.636719 15.972656 25.617188 16.0625 C 25.59375 16.148438 25.546875 16.207031 25.472656 16.230469 C 25.4375 16.242188 25.398438 16.25 25.363281 16.246094 L 24.828125 16.246094 C 24.765625 16.246094 24.714844 16.246094 24.667969 16.238281 C 24.625 16.234375 24.589844 16.207031 24.566406 16.171875 C 24.550781 16.136719 24.546875 16.09375 24.550781 16.054688 C 24.5625 16.003906 24.574219 15.953125 24.582031 15.894531 L 24.691406 15.359375 L 24.917969 14.21875 C 24.957031 14.03125 24.980469 13.855469 24.996094 13.699219 C 25.015625 13.535156 25 13.398438 24.941406 13.285156 C 24.890625 13.183594 24.800781 13.113281 24.675781 13.070312 C 24.648438 13.0625 24.617188 13.054688 24.589844 13.054688 C 24.5625 13.054688 24.539062 13.050781 24.515625 13.039062 C 24.480469 13.035156 24.449219 13.035156 24.414062 13.039062 C 24.386719 13.039062 24.359375 13.042969 24.328125 13.046875 C 24.308594 13.050781 24.289062 13.054688 24.269531 13.054688 C 24.253906 13.054688 24.238281 13.058594 24.222656 13.0625 C 24.113281 13.085938 24.011719 13.128906 23.917969 13.1875 C 23.726562 13.304688 23.59375 13.472656 23.519531 13.699219 C 23.441406 13.949219 23.378906 14.199219 23.328125 14.457031 L 23.136719 15.414062 L 23.042969 15.878906 L 23.011719 16.019531 C 23.003906 16.058594 22.988281 16.097656 22.96875 16.132812 C 22.9375 16.1875 22.882812 16.222656 22.824219 16.230469 C 22.765625 16.242188 22.699219 16.246094 22.617188 16.246094 L 22.234375 16.246094 C 22.175781 16.246094 22.121094 16.246094 22.0625 16.238281 C 22.007812 16.234375 21.972656 16.214844 21.957031 16.1875 C 21.925781 16.140625 21.921875 16.074219 21.941406 15.988281 C 21.960938 15.902344 21.980469 15.820312 21.996094 15.742188 L 22.203125 14.703125 L 22.539062 13.015625 L 22.625 12.625 C 22.632812 12.570312 22.644531 12.519531 22.652344 12.472656 C 22.664062 12.429688 22.6875 12.386719 22.722656 12.359375 C 22.734375 12.34375 22.75 12.332031 22.777344 12.328125 C 22.800781 12.320312 22.828125 12.3125 22.851562 12.304688 L 22.890625 12.304688 C 22.917969 12.300781 22.941406 12.296875 22.96875 12.296875 L 23.375 12.296875 C 23.414062 12.296875 23.453125 12.300781 23.488281 12.304688 C 23.53125 12.304688 23.566406 12.308594 23.597656 12.320312 C 23.625 12.332031 23.644531 12.359375 23.648438 12.390625 C 23.660156 12.425781 23.664062 12.460938 23.664062 12.496094 C 23.664062 12.515625 23.664062 12.53125 23.65625 12.550781 C 23.652344 12.566406 23.652344 12.582031 23.65625 12.597656 C 23.660156 12.621094 23.667969 12.636719 23.671875 12.640625 C 23.683594 12.648438 23.695312 12.65625 23.710938 12.664062 C 23.765625 12.667969 23.816406 12.648438 23.855469 12.613281 C 23.902344 12.566406 23.949219 12.53125 23.992188 12.503906 C 24.152344 12.402344 24.320312 12.320312 24.5 12.257812 C 24.550781 12.246094 24.597656 12.234375 24.644531 12.230469 C 24.699219 12.222656 24.757812 12.214844 24.8125 12.207031 C 24.835938 12.199219 24.859375 12.199219 24.882812 12.207031 C 24.902344 12.207031 24.921875 12.203125 24.941406 12.199219 Z M 26.835938 12.191406 C 26.84375 12.195312 26.84375 12.203125 26.84375 12.21875 C 26.84375 12.230469 26.84375 12.242188 26.835938 12.253906 L 26.835938 12.265625 C 26.832031 12.277344 26.828125 12.285156 26.824219 12.289062 C 26.816406 12.296875 26.808594 12.300781 26.800781 12.300781 C 26.789062 12.304688 26.777344 12.304688 26.765625 12.304688 C 26.75 12.304688 26.738281 12.304688 26.722656 12.304688 L 26.699219 12.304688 C 26.695312 12.304688 26.691406 12.304688 26.6875 12.304688 C 26.683594 12.304688 26.675781 12.304688 26.671875 12.308594 C 26.664062 12.3125 26.652344 12.320312 26.644531 12.335938 C 26.640625 12.34375 26.640625 12.347656 26.636719 12.355469 L 26.636719 12.375 L 26.5625 12.738281 C 26.5625 12.742188 26.5625 12.746094 26.5625 12.75 C 26.5625 12.753906 26.558594 12.757812 26.558594 12.761719 L 26.554688 12.777344 C 26.554688 12.777344 26.550781 12.78125 26.550781 12.785156 C 26.550781 12.789062 26.550781 12.789062 26.546875 12.792969 C 26.542969 12.800781 26.535156 12.804688 26.527344 12.808594 C 26.519531 12.8125 26.515625 12.8125 26.507812 12.8125 L 26.441406 12.8125 C 26.421875 12.8125 26.410156 12.808594 26.40625 12.800781 C 26.402344 12.792969 26.402344 12.785156 26.402344 12.777344 C 26.402344 12.769531 26.40625 12.761719 26.40625 12.75 L 26.480469 12.390625 L 26.484375 12.375 C 26.484375 12.371094 26.484375 12.363281 26.484375 12.359375 L 26.488281 12.339844 C 26.488281 12.324219 26.484375 12.3125 26.472656 12.308594 C 26.460938 12.300781 26.445312 12.300781 26.429688 12.300781 C 26.414062 12.304688 26.398438 12.304688 26.386719 12.304688 C 26.378906 12.304688 26.375 12.304688 26.371094 12.304688 C 26.367188 12.304688 26.363281 12.304688 26.359375 12.304688 C 26.355469 12.300781 26.351562 12.300781 26.347656 12.300781 C 26.34375 12.300781 26.34375 12.300781 26.339844 12.300781 C 26.328125 12.296875 26.324219 12.285156 26.324219 12.277344 C 26.328125 12.257812 26.328125 12.238281 26.335938 12.21875 C 26.335938 12.214844 26.339844 12.210938 26.34375 12.203125 C 26.34375 12.199219 26.347656 12.195312 26.355469 12.195312 C 26.359375 12.191406 26.363281 12.1875 26.371094 12.1875 C 26.371094 12.183594 26.375 12.183594 26.375 12.1875 C 26.378906 12.1875 26.378906 12.1875 26.382812 12.183594 L 26.792969 12.183594 C 26.800781 12.183594 26.808594 12.183594 26.816406 12.1875 C 26.828125 12.1875 26.832031 12.1875 26.839844 12.191406 Z M 27.652344 12.195312 C 27.65625 12.203125 27.65625 12.210938 27.65625 12.21875 C 27.652344 12.230469 27.652344 12.238281 27.652344 12.25 L 27.550781 12.75 C 27.550781 12.757812 27.546875 12.769531 27.542969 12.777344 C 27.542969 12.785156 27.539062 12.792969 27.53125 12.800781 C 27.527344 12.808594 27.515625 12.8125 27.5 12.8125 L 27.457031 12.8125 C 27.449219 12.8125 27.441406 12.8125 27.4375 12.8125 C 27.429688 12.8125 27.425781 12.8125 27.421875 12.8125 C 27.410156 12.808594 27.40625 12.804688 27.402344 12.796875 C 27.402344 12.789062 27.402344 12.78125 27.402344 12.773438 L 27.40625 12.75 C 27.40625 12.746094 27.40625 12.742188 27.410156 12.738281 C 27.410156 12.734375 27.410156 12.726562 27.410156 12.722656 L 27.453125 12.527344 L 27.457031 12.492188 C 27.460938 12.480469 27.460938 12.46875 27.460938 12.457031 C 27.460938 12.453125 27.460938 12.449219 27.460938 12.445312 C 27.460938 12.441406 27.460938 12.4375 27.457031 12.4375 C 27.457031 12.4375 27.453125 12.433594 27.453125 12.433594 C 27.449219 12.4375 27.445312 12.441406 27.441406 12.441406 C 27.429688 12.453125 27.421875 12.46875 27.414062 12.484375 C 27.386719 12.53125 27.359375 12.578125 27.332031 12.625 C 27.316406 12.65625 27.296875 12.6875 27.28125 12.71875 C 27.269531 12.734375 27.261719 12.75 27.253906 12.765625 C 27.246094 12.78125 27.234375 12.792969 27.222656 12.804688 C 27.214844 12.808594 27.207031 12.8125 27.199219 12.8125 L 27.152344 12.8125 C 27.148438 12.808594 27.140625 12.808594 27.136719 12.808594 C 27.132812 12.804688 27.128906 12.804688 27.128906 12.800781 C 27.125 12.796875 27.121094 12.792969 27.121094 12.789062 C 27.117188 12.773438 27.113281 12.757812 27.113281 12.746094 C 27.109375 12.734375 27.109375 12.722656 27.105469 12.714844 C 27.101562 12.683594 27.097656 12.652344 27.09375 12.625 C 27.085938 12.59375 27.082031 12.5625 27.078125 12.53125 L 27.066406 12.480469 C 27.066406 12.464844 27.058594 12.449219 27.050781 12.433594 C 27.046875 12.433594 27.046875 12.4375 27.046875 12.4375 L 27.042969 12.4375 C 27.039062 12.441406 27.035156 12.445312 27.03125 12.453125 C 27.03125 12.457031 27.027344 12.460938 27.027344 12.464844 C 27.027344 12.472656 27.023438 12.476562 27.023438 12.480469 L 27.019531 12.507812 C 27.015625 12.511719 27.011719 12.519531 27.011719 12.527344 L 26.976562 12.707031 C 26.972656 12.71875 26.96875 12.738281 26.964844 12.753906 C 26.964844 12.769531 26.960938 12.785156 26.953125 12.796875 C 26.949219 12.796875 26.945312 12.800781 26.941406 12.804688 C 26.941406 12.804688 26.9375 12.808594 26.9375 12.808594 C 26.929688 12.808594 26.921875 12.8125 26.917969 12.8125 L 26.855469 12.8125 C 26.84375 12.8125 26.835938 12.808594 26.824219 12.804688 C 26.820312 12.800781 26.816406 12.792969 26.816406 12.785156 C 26.820312 12.773438 26.820312 12.761719 26.824219 12.753906 L 26.921875 12.246094 L 26.929688 12.222656 C 26.933594 12.214844 26.9375 12.207031 26.941406 12.199219 C 26.945312 12.191406 26.957031 12.1875 26.964844 12.1875 C 26.96875 12.183594 26.96875 12.183594 26.972656 12.1875 C 26.972656 12.1875 26.976562 12.1875 26.976562 12.183594 L 27.113281 12.183594 C 27.121094 12.183594 27.128906 12.1875 27.136719 12.191406 C 27.144531 12.199219 27.148438 12.207031 27.148438 12.222656 C 27.160156 12.292969 27.175781 12.363281 27.1875 12.433594 C 27.195312 12.46875 27.203125 12.507812 27.210938 12.546875 C 27.210938 12.554688 27.214844 12.558594 27.222656 12.558594 C 27.226562 12.5625 27.230469 12.5625 27.234375 12.558594 C 27.25 12.542969 27.261719 12.527344 27.269531 12.511719 C 27.277344 12.496094 27.285156 12.484375 27.292969 12.472656 C 27.3125 12.4375 27.332031 12.40625 27.351562 12.371094 C 27.371094 12.335938 27.390625 12.300781 27.414062 12.265625 C 27.421875 12.25 27.429688 12.238281 27.4375 12.222656 C 27.445312 12.207031 27.457031 12.195312 27.472656 12.1875 C 27.480469 12.1875 27.488281 12.183594 27.496094 12.183594 L 27.605469 12.183594 C 27.613281 12.183594 27.617188 12.183594 27.621094 12.183594 L 27.632812 12.183594 C 27.636719 12.1875 27.640625 12.1875 27.644531 12.1875 C 27.648438 12.191406 27.652344 12.191406 27.652344 12.195312 Z M 27.652344 12.195312 "/>
<path style=" stroke:none;fill-rule:nonzero;fill:url(#linear0);" d="M 17.492188 12.203125 C 17.394531 12.21875 17.234375 12.289062 17.039062 12.402344 L 17.195312 12.691406 C 17.324219 12.597656 17.449219 12.519531 17.578125 12.457031 L 17.59375 12.449219 L 17.578125 12.457031 C 17.535156 12.476562 17.410156 12.546875 17.21875 12.703125 C 17.394531 12.746094 17.664062 12.796875 17.882812 12.832031 C 17.964844 12.582031 17.839844 12.417969 17.839844 12.417969 C 17.839844 12.417969 17.6875 12.175781 17.488281 12.203125 Z M 17.492188 12.203125 "/>
<path style=" stroke:none;fill-rule:nonzero;fill:rgb(74.509804%,12.54902%,18.039216%);fill-opacity:1;" d="M 16.730469 14.277344 C 16.734375 14.277344 16.738281 14.277344 16.742188 14.277344 C 16.753906 14.28125 16.769531 14.28125 16.78125 14.28125 Z M 16.730469 14.277344 "/>
<use xlink:href="#surface16" mask="url(#mask3)"/>
<path style=" stroke:none;fill-rule:nonzero;fill:url(#linear1);" d="M 16.644531 13.425781 C 16.703125 13.367188 16.761719 13.308594 16.820312 13.25 C 16.945312 13.132812 17.074219 13.023438 17.210938 12.925781 L 17.042969 12.613281 L 17 12.640625 C 16.945312 12.671875 16.886719 12.707031 16.828125 12.746094 C 16.632812 12.878906 16.445312 13.023438 16.265625 13.175781 L 16.257812 13.179688 L 16.476562 13.601562 Z M 16.644531 13.425781 "/>
<path style=" stroke:none;fill-rule:nonzero;fill:url(#linear2);" d="M 15.308594 15.589844 C 15.277344 15.640625 15.246094 15.691406 15.210938 15.746094 L 15.210938 15.75 C 15.207031 15.757812 15.199219 15.765625 15.195312 15.773438 C 15.175781 15.808594 15.15625 15.84375 15.109375 15.917969 C 15.175781 15.957031 15.226562 16.03125 15.269531 16.113281 C 15.269531 16.042969 15.234375 15.964844 15.164062 15.894531 C 15.488281 16 15.769531 16.019531 15.921875 15.886719 C 15.933594 15.875 15.949219 15.859375 15.960938 15.847656 C 15.890625 15.890625 15.808594 15.890625 15.65625 15.839844 C 15.882812 15.832031 16 15.792969 16.105469 15.703125 C 16.132812 15.679688 16.15625 15.65625 16.183594 15.628906 C 15.976562 15.722656 15.746094 15.699219 15.507812 15.597656 L 15.328125 15.558594 Z M 15.308594 15.589844 "/>
<path style=" stroke:none;fill-rule:nonzero;fill:url(#linear3);" d="M 15.53125 15.121094 L 15.679688 14.910156 C 15.726562 14.84375 15.773438 14.777344 15.824219 14.707031 C 15.875 14.640625 15.925781 14.574219 15.980469 14.503906 C 16.03125 14.4375 16.085938 14.367188 16.140625 14.300781 C 16.195312 14.234375 16.253906 14.167969 16.308594 14.101562 C 16.328125 14.078125 16.347656 14.054688 16.371094 14.03125 C 16.40625 13.992188 16.441406 13.953125 16.476562 13.914062 C 16.476562 13.910156 16.480469 13.910156 16.480469 13.90625 L 16.257812 13.472656 C 16.253906 13.476562 16.25 13.480469 16.242188 13.484375 C 16.183594 13.539062 16.121094 13.589844 16.058594 13.648438 C 15.945312 13.75 15.839844 13.859375 15.734375 13.972656 L 15.707031 14.003906 C 15.59375 14.132812 15.492188 14.265625 15.402344 14.40625 C 15.375 14.449219 15.351562 14.492188 15.324219 14.535156 C 15.304688 14.570312 15.289062 14.605469 15.269531 14.640625 C 15.226562 14.726562 15.191406 14.8125 15.160156 14.898438 L 15.386719 15.335938 C 15.425781 15.28125 15.460938 15.226562 15.5 15.167969 Z M 15.53125 15.121094 "/>
<path style=" stroke:none;fill-rule:nonzero;fill:url(#linear4);" d="M 15.128906 15.199219 C 15.089844 15.308594 15.058594 15.421875 15.039062 15.539062 C 15.039062 15.542969 15.039062 15.546875 15.039062 15.550781 C 14.960938 15.433594 14.742188 15.277344 14.742188 15.277344 C 14.894531 15.488281 15.007812 15.683594 15.015625 15.851562 C 14.929688 15.839844 14.8125 15.785156 14.679688 15.714844 C 14.816406 15.84375 14.917969 15.902344 14.960938 15.917969 C 14.832031 15.886719 14.691406 15.914062 14.550781 15.949219 C 14.753906 15.945312 14.917969 15.96875 15.03125 16.019531 C 14.8125 16.363281 14.609375 16.710938 14.414062 17.066406 C 14.472656 17.070312 14.507812 17.054688 14.527344 17.023438 C 14.734375 16.648438 14.953125 16.285156 15.1875 15.929688 L 15.21875 15.878906 L 15.226562 15.867188 L 15.351562 15.683594 C 15.363281 15.667969 15.371094 15.652344 15.382812 15.640625 L 15.382812 15.636719 L 15.136719 15.1875 C 15.132812 15.191406 15.128906 15.195312 15.128906 15.199219 Z M 15.128906 15.199219 "/>
<path style=" stroke:none;fill-rule:nonzero;fill:url(#linear5);" d="M 16.382812 13.894531 L 16.359375 13.917969 C 16.339844 13.945312 16.316406 13.96875 16.296875 13.996094 L 16.222656 14.082031 C 16.210938 14.097656 16.199219 14.109375 16.1875 14.125 C 16.148438 14.171875 16.113281 14.21875 16.074219 14.269531 C 15.972656 14.394531 15.878906 14.523438 15.785156 14.652344 C 15.738281 14.71875 15.695312 14.785156 15.644531 14.855469 C 15.605469 14.914062 15.5625 14.980469 15.519531 15.042969 C 15.515625 15.046875 15.515625 15.050781 15.511719 15.054688 C 15.46875 15.121094 15.425781 15.191406 15.382812 15.257812 L 15.570312 15.296875 L 15.558594 15.292969 C 15.78125 15.339844 16.082031 15.304688 16.28125 15.207031 C 16.371094 15.160156 16.453125 15.101562 16.535156 15.027344 C 16.59375 14.972656 16.648438 14.90625 16.703125 14.832031 C 16.75 14.765625 16.792969 14.695312 16.839844 14.613281 C 16.785156 14.617188 16.726562 14.613281 16.664062 14.605469 L 16.628906 14.601562 L 16.589844 14.59375 C 16.800781 14.597656 16.9375 14.519531 17.039062 14.40625 C 16.941406 14.425781 16.839844 14.425781 16.742188 14.40625 L 16.730469 14.40625 C 16.792969 14.40625 16.859375 14.398438 16.921875 14.382812 C 16.933594 14.378906 16.941406 14.378906 16.953125 14.375 C 16.96875 14.367188 16.984375 14.359375 17.003906 14.355469 L 17.03125 14.339844 C 17.050781 14.328125 17.074219 14.3125 17.089844 14.296875 C 17.097656 14.292969 17.101562 14.289062 17.109375 14.28125 C 17.117188 14.273438 17.125 14.265625 17.128906 14.257812 C 17.167969 14.214844 17.203125 14.171875 17.234375 14.121094 C 17.234375 14.117188 17.238281 14.113281 17.242188 14.109375 C 17.25 14.09375 17.257812 14.082031 17.261719 14.070312 C 17.269531 14.054688 17.273438 14.042969 17.277344 14.027344 C 17.269531 14.03125 17.261719 14.03125 17.253906 14.03125 C 17.167969 14.039062 17.078125 14.035156 16.992188 14.019531 L 16.964844 14.015625 L 16.96875 14.015625 L 16.382812 13.886719 C 16.382812 13.894531 16.382812 13.894531 16.382812 13.894531 Z M 16.382812 13.894531 "/>
<path style=" stroke:none;fill-rule:nonzero;fill:url(#linear6);" d="M 17.152344 12.894531 C 17.097656 12.9375 17.039062 12.984375 16.976562 13.042969 C 16.972656 13.042969 16.96875 13.046875 16.96875 13.050781 C 16.851562 13.15625 16.738281 13.269531 16.628906 13.382812 C 16.578125 13.4375 16.527344 13.492188 16.476562 13.554688 L 17.042969 13.671875 C 17.207031 13.664062 17.285156 13.632812 17.359375 13.582031 C 17.503906 13.472656 17.628906 13.34375 17.730469 13.199219 C 17.753906 13.164062 17.773438 13.128906 17.789062 13.101562 C 17.800781 13.074219 17.808594 13.050781 17.816406 13.023438 C 17.59375 12.988281 17.371094 12.945312 17.152344 12.894531 Z M 17.152344 12.894531 "/>
<path style=" stroke:none;fill-rule:nonzero;fill:url(#linear7);" d="M 14.167969 11.621094 C 14.257812 11.699219 14.402344 11.875 14.570312 12.109375 L 14.363281 12.269531 C 14.261719 12.101562 14.148438 11.9375 14.023438 11.78125 C 14.027344 11.785156 14.035156 11.792969 14.039062 11.796875 C 14.074219 11.84375 14.183594 11.992188 14.34375 12.265625 C 14.164062 12.191406 13.890625 12.054688 13.671875 11.941406 C 13.640625 11.652344 13.789062 11.585938 13.789062 11.585938 C 13.789062 11.585938 13.984375 11.460938 14.167969 11.621094 Z M 14.167969 11.621094 "/>
<path style=" stroke:none;fill-rule:nonzero;fill:rgb(74.509804%,12.54902%,18.039216%);fill-opacity:1;" d="M 14.089844 13.835938 L 14.082031 13.832031 C 14.066406 13.824219 14.054688 13.820312 14.042969 13.8125 Z M 14.089844 13.835938 "/>
<use xlink:href="#surface22" mask="url(#mask4)"/>
<path style=" stroke:none;fill-rule:nonzero;fill:url(#linear8);" d="M 14.589844 13.121094 C 14.542969 13.023438 14.496094 12.925781 14.445312 12.832031 C 14.34375 12.636719 14.234375 12.445312 14.121094 12.257812 L 14.34375 12.085938 L 14.382812 12.140625 C 14.429688 12.210938 14.480469 12.28125 14.53125 12.359375 C 14.699219 12.617188 14.859375 12.878906 15.011719 13.148438 L 15.015625 13.15625 L 14.722656 13.394531 C 14.679688 13.304688 14.636719 13.210938 14.589844 13.121094 Z M 14.589844 13.121094 "/>
<path style=" stroke:none;fill-rule:nonzero;fill:url(#linear9);" d="M 14.824219 15.691406 C 14.847656 15.761719 14.867188 15.832031 14.890625 15.90625 L 14.890625 15.910156 L 14.898438 15.941406 L 14.957031 16.132812 C 14.886719 16.125 14.824219 16.160156 14.765625 16.207031 C 14.78125 16.140625 14.828125 16.09375 14.910156 16.074219 C 14.578125 15.953125 14.296875 15.78125 14.175781 15.554688 C 14.164062 15.535156 14.152344 15.515625 14.144531 15.492188 C 14.203125 15.578125 14.28125 15.636719 14.441406 15.691406 C 14.21875 15.527344 14.113281 15.414062 14.027344 15.257812 C 14.007812 15.21875 13.988281 15.179688 13.96875 15.140625 C 14.148438 15.367188 14.378906 15.5 14.628906 15.566406 L 14.8125 15.652344 Z M 14.824219 15.691406 "/>
<path style=" stroke:none;fill-rule:nonzero;fill:url(#linear10);" d="M 15.023438 15.179688 L 14.917969 14.882812 C 14.84375 14.6875 14.769531 14.492188 14.691406 14.300781 C 14.652344 14.199219 14.609375 14.097656 14.566406 14 C 14.527344 13.898438 14.480469 13.800781 14.4375 13.699219 C 14.394531 13.601562 14.351562 13.507812 14.304688 13.410156 L 14.300781 13.398438 L 14.609375 13.152344 C 14.613281 13.160156 14.617188 13.164062 14.621094 13.171875 C 14.773438 13.433594 14.914062 13.699219 15.039062 13.976562 L 15.0625 14.023438 C 15.148438 14.214844 15.226562 14.40625 15.292969 14.605469 C 15.3125 14.664062 15.328125 14.722656 15.34375 14.777344 C 15.359375 14.824219 15.371094 14.871094 15.382812 14.914062 C 15.40625 15.023438 15.425781 15.128906 15.441406 15.230469 L 15.128906 15.480469 C 15.101562 15.402344 15.074219 15.324219 15.046875 15.246094 Z M 15.023438 15.179688 "/>
<path style=" stroke:none;fill-rule:nonzero;fill:url(#linear11);" d="M 14.964844 15.253906 C 14.984375 15.382812 14.992188 15.503906 14.988281 15.625 L 14.988281 15.636719 C 15.089844 15.578125 15.347656 15.574219 15.34375 15.578125 C 15.148438 15.671875 14.992188 15.785156 14.953125 15.933594 C 15.042969 15.976562 15.171875 16.003906 15.320312 16.023438 C 15.214844 16.046875 15.101562 16.050781 14.992188 16.03125 C 15.132812 16.089844 15.265625 16.203125 15.402344 16.324219 C 15.195312 16.191406 15.027344 16.105469 14.898438 16.082031 C 15.042969 16.507812 15.183594 16.96875 15.316406 17.457031 C 15.269531 17.433594 15.230469 17.390625 15.210938 17.339844 C 15.074219 16.855469 14.925781 16.371094 14.761719 15.894531 C 14.753906 15.871094 14.742188 15.847656 14.738281 15.828125 L 14.730469 15.808594 C 14.699219 15.722656 14.671875 15.640625 14.640625 15.554688 L 14.621094 15.496094 L 14.960938 15.238281 C 14.964844 15.242188 14.964844 15.246094 14.964844 15.253906 Z M 14.964844 15.253906 "/>
<path style=" stroke:none;fill-rule:nonzero;fill:url(#linear12);" d="M 14.394531 13.597656 L 14.410156 13.636719 L 14.460938 13.753906 L 14.515625 13.882812 L 14.542969 13.949219 C 14.613281 14.109375 14.675781 14.273438 14.738281 14.4375 C 14.773438 14.527344 14.808594 14.621094 14.84375 14.714844 C 14.875 14.808594 14.910156 14.902344 14.941406 14.996094 L 15.03125 15.261719 C 15.035156 15.265625 15.035156 15.269531 15.035156 15.277344 C 15.066406 15.363281 15.097656 15.457031 15.125 15.550781 C 15.128906 15.550781 15.128906 15.554688 15.128906 15.554688 L 14.9375 15.464844 L 14.949219 15.46875 C 14.722656 15.355469 14.433594 15.113281 14.253906 14.886719 C 14.171875 14.777344 14.097656 14.664062 14.039062 14.542969 C 13.988281 14.445312 13.945312 14.347656 13.910156 14.246094 C 13.871094 14.148438 13.839844 14.046875 13.8125 13.949219 C 13.863281 13.988281 13.921875 14.027344 13.988281 14.0625 L 14.023438 14.082031 L 14.0625 14.101562 C 13.882812 13.984375 13.742188 13.816406 13.652344 13.617188 C 13.707031 13.667969 13.792969 13.738281 13.902344 13.800781 C 13.914062 13.808594 13.929688 13.816406 13.945312 13.824219 L 13.957031 13.832031 C 13.882812 13.777344 13.808594 13.714844 13.746094 13.644531 C 13.730469 13.628906 13.714844 13.613281 13.699219 13.59375 C 13.691406 13.582031 13.683594 13.574219 13.675781 13.5625 C 13.65625 13.535156 13.640625 13.507812 13.625 13.480469 C 13.617188 13.472656 13.613281 13.464844 13.609375 13.453125 C 13.605469 13.441406 13.597656 13.429688 13.59375 13.417969 C 13.5625 13.355469 13.539062 13.289062 13.515625 13.21875 C 13.515625 13.214844 13.511719 13.207031 13.511719 13.199219 C 13.503906 13.183594 13.5 13.164062 13.496094 13.148438 C 13.492188 13.132812 13.492188 13.117188 13.488281 13.101562 C 13.496094 13.109375 13.503906 13.117188 13.511719 13.121094 C 13.59375 13.1875 13.679688 13.246094 13.773438 13.292969 L 13.800781 13.308594 C 13.800781 13.308594 13.796875 13.304688 13.796875 13.304688 L 14.394531 13.59375 C 14.394531 13.59375 14.394531 13.597656 14.394531 13.597656 Z M 14.394531 13.597656 "/>
<path style=" stroke:none;fill-rule:nonzero;fill:url(#linear13);" d="M 14.175781 12.390625 C 14.21875 12.464844 14.265625 12.550781 14.316406 12.644531 C 14.320312 12.652344 14.324219 12.65625 14.324219 12.660156 C 14.417969 12.835938 14.507812 13.015625 14.59375 13.195312 C 14.632812 13.28125 14.671875 13.367188 14.710938 13.460938 L 14.140625 13.1875 C 13.980469 13.066406 13.910156 12.988281 13.847656 12.886719 C 13.730469 12.695312 13.632812 12.492188 13.554688 12.28125 C 13.539062 12.238281 13.527344 12.195312 13.519531 12.152344 C 13.511719 12.125 13.507812 12.09375 13.503906 12.0625 C 13.722656 12.179688 13.996094 12.3125 14.175781 12.390625 Z M 14.175781 12.390625 "/>
<path style=" stroke:none;fill-rule:nonzero;fill:rgb(74.509804%,12.54902%,18.039216%);fill-opacity:1;" d="M 14.097656 14.113281 L 14.128906 14.125 C 14.117188 14.121094 14.105469 14.117188 14.097656 14.113281 Z M 14.097656 14.113281 "/>
<use xlink:href="#surface25" mask="url(#mask5)"/>
<path style=" stroke:none;fill-rule:nonzero;fill:url(#linear14);" d="M 14.097656 14.113281 L 14.128906 14.125 C 14.117188 14.121094 14.105469 14.117188 14.097656 14.113281 Z M 14.097656 14.113281 "/>
<path style=" stroke:none;fill-rule:nonzero;fill:rgb(74.509804%,12.54902%,18.039216%);fill-opacity:1;" d="M 14.089844 13.835938 L 14.078125 13.832031 Z M 14.089844 13.835938 "/>
<use xlink:href="#surface28" mask="url(#mask6)"/>
<path style=" stroke:none;fill-rule:nonzero;fill:url(#linear15);" d="M 14.089844 13.835938 L 14.078125 13.832031 Z M 14.089844 13.835938 "/>
</g>
</svg>
