<?xml version="1.0" encoding="UTF-8"?>
<svg xmlns="http://www.w3.org/2000/svg" xmlns:xlink="http://www.w3.org/1999/xlink" width="30px" height="30px" viewBox="0 0 30 29" version="1.1">
<defs>
<linearGradient id="linear0" gradientUnits="userSpaceOnUse" x1="0.12959" y1="0.12039" x2="0.79639" y2="0.78201" gradientTransform="matrix(22.179688,0,0,21.585938,0.015625,0.0078125)">
<stop offset="0" style="stop-color:rgb(21.960784%,49.411765%,72.156863%);stop-opacity:1;"/>
<stop offset="1" style="stop-color:rgb(21.176471%,41.176471%,58.039216%);stop-opacity:1;"/>
</linearGradient>
<linearGradient id="linear1" gradientUnits="userSpaceOnUse" x1="0.19128" y1="0.20579" x2="0.90742" y2="0.88429" gradientTransform="matrix(22.179688,0,0,21.585937,7.761719,7.316406)">
<stop offset="0" style="stop-color:rgb(100%,87.843137%,32.156863%);stop-opacity:1;"/>
<stop offset="1" style="stop-color:rgb(100%,76.470588%,19.215686%);stop-opacity:1;"/>
</linearGradient>
</defs>
<g id="surface1">
<path style=" stroke:none;fill-rule:nonzero;fill:url(#linear0);" d="M 14.871094 0.0078125 C 7.273438 0.0078125 7.75 3.207031 7.75 3.207031 L 7.757812 6.519531 L 15.007812 6.519531 L 15.007812 7.511719 L 4.878906 7.511719 C 4.878906 7.511719 0.015625 6.976562 0.015625 14.417969 C 0.015625 21.855469 4.261719 21.59375 4.261719 21.59375 L 6.792969 21.59375 L 6.792969 18.140625 C 6.792969 18.140625 6.65625 14.023438 10.96875 14.023438 L 18.15625 14.023438 C 18.15625 14.023438 22.195312 14.085938 22.195312 10.234375 L 22.195312 3.863281 C 22.195312 3.863281 22.8125 0.0078125 14.871094 0.0078125 Z M 10.875 2.234375 C 11.21875 2.234375 11.550781 2.367188 11.796875 2.605469 C 12.042969 2.84375 12.179688 3.164062 12.179688 3.5 C 12.179688 3.835938 12.042969 4.160156 11.796875 4.398438 C 11.550781 4.632812 11.21875 4.769531 10.875 4.765625 C 10.527344 4.769531 10.195312 4.632812 9.953125 4.398438 C 9.707031 4.160156 9.570312 3.835938 9.570312 3.5 C 9.570312 3.164062 9.707031 2.84375 9.953125 2.605469 C 10.195312 2.367188 10.527344 2.234375 10.875 2.234375 Z M 10.875 2.234375 "/>
<path style=" stroke:none;fill-rule:nonzero;fill:url(#linear1);" d="M 15.085938 28.902344 C 22.683594 28.902344 22.210938 25.703125 22.210938 25.703125 L 22.203125 22.390625 L 14.953125 22.390625 L 14.953125 21.394531 L 25.082031 21.394531 C 25.082031 21.394531 29.941406 21.929688 29.941406 14.492188 C 29.941406 7.050781 25.699219 7.316406 25.699219 7.316406 L 23.167969 7.316406 L 23.167969 10.769531 C 23.167969 10.769531 23.304688 14.886719 18.992188 14.886719 L 11.800781 14.886719 C 11.800781 14.886719 7.761719 14.824219 7.761719 18.675781 L 7.761719 25.046875 C 7.761719 25.046875 7.148438 28.902344 15.085938 28.902344 Z M 19.085938 26.671875 C 18.738281 26.671875 18.40625 26.539062 18.164062 26.304688 C 17.917969 26.066406 17.78125 25.742188 17.78125 25.40625 C 17.78125 25.070312 17.917969 24.75 18.160156 24.511719 C 18.40625 24.273438 18.738281 24.140625 19.085938 24.140625 C 19.429688 24.140625 19.761719 24.273438 20.007812 24.511719 C 20.25 24.75 20.390625 25.070312 20.390625 25.40625 C 20.390625 25.742188 20.25 26.066406 20.007812 26.300781 C 19.761719 26.539062 19.429688 26.671875 19.085938 26.671875 Z M 19.085938 26.671875 "/>
</g>
</svg>
