<?xml version="1.0" encoding="UTF-8"?>
<svg xmlns="http://www.w3.org/2000/svg" xmlns:xlink="http://www.w3.org/1999/xlink" width="30px" height="30px" viewBox="0 0 30 30" version="1.1">
<g id="surface1">
<path style=" stroke:none;fill-rule:nonzero;fill:rgb(81.960784%,64.313725%,10.196078%);fill-opacity:1;" d="M 5.191406 14.601562 C 5.53125 15.023438 5.910156 15.449219 6.328125 15.878906 C 5.113281 16.246094 4.316406 16.925781 3.820312 17.523438 C 3.035156 18.472656 2.617188 19.726562 2.714844 20.800781 L 0.621094 20.800781 C 1.039062 19.890625 2.714844 17.257812 5.191406 14.601562 Z M 29.4375 21.371094 L 29.4375 21.371094 M 29.4375 21.371094 L 26.890625 21.371094 C 21.054688 18.328125 15.929688 16.179688 10.484375 15.707031 C 10.496094 14.949219 10.628906 14.09375 10.886719 13.136719 L 10.386719 13.003906 C 10.121094 13.984375 9.980469 14.875 9.964844 15.667969 C 9.398438 15.632812 8.828125 15.613281 8.25 15.613281 C 7.761719 15.613281 7.316406 15.65625 6.910156 15.734375 C 6.382812 15.207031 5.929688 14.703125 5.546875 14.226562 C 8.058594 11.609375 12.195312 9.242188 15.796875 8.351562 C 16.808594 11.722656 18.984375 14.03125 21.625 15.585938 C 21.820312 15.472656 22.011719 15.359375 22.199219 15.234375 L 26.804688 20.195312 L 27.007812 20.179688 C 28.265625 20.070312 28.980469 20.753906 29.167969 20.964844 C 29.308594 21.117188 29.390625 21.261719 29.4375 21.371094 Z M 29.4375 21.371094 "/>
<path style=" stroke:none;fill-rule:nonzero;fill:rgb(100%,86.27451%,46.27451%);fill-opacity:1;" d="M 27.1875 4.785156 C 27.28125 9.359375 24.949219 13.003906 21.679688 14.871094 C 16.128906 12.105469 15.085938 5.101562 16.03125 1.347656 C 16.292969 2.78125 16.773438 3.683594 17.804688 4.125 C 20.058594 3.480469 23.160156 3.429688 25.445312 4.058594 C 26.394531 3.367188 26.765625 2.308594 26.964844 1.386719 C 27.21875 2.460938 27.1875 4.785156 27.1875 4.785156 Z M 27.1875 4.785156 "/>
<path style=" stroke:none;fill-rule:nonzero;fill:rgb(0%,0%,0%);fill-opacity:1;" d="M 14.078125 11.625 L 11.507812 9.902344 L 13.230469 9.117188 Z M 14.078125 11.625 "/>
<path style=" stroke:none;fill-rule:nonzero;fill:rgb(0%,0%,0%);fill-opacity:1;" d="M 11.664062 11.78125 L 9.75 10.808594 L 10.753906 10.214844 Z M 11.664062 11.78125 "/>
<path style=" stroke:none;fill-rule:nonzero;fill:rgb(0%,0%,0%);fill-opacity:1;" d="M 9.125 13.003906 L 7.804688 12.097656 L 8.683594 11.4375 Z M 9.125 13.003906 "/>
<path style=" stroke:none;fill-rule:nonzero;fill:rgb(0%,0%,0%);fill-opacity:1;" d="M 21.886719 16.894531 L 23.328125 16.234375 L 22.703125 15.640625 Z M 21.886719 16.894531 "/>
<path style=" stroke:none;fill-rule:nonzero;fill:rgb(0%,0%,0%);fill-opacity:1;" d="M 22.671875 18.085938 L 24.488281 17.613281 L 23.988281 17.082031 Z M 22.671875 18.085938 "/>
<path style=" stroke:none;fill-rule:nonzero;fill:rgb(0%,0%,0%);fill-opacity:1;" d="M 21.761719 5.605469 L 22.390625 3.441406 L 20.789062 3.472656 Z M 21.761719 5.605469 "/>
<path style=" stroke:none;fill-rule:nonzero;fill:rgb(0%,0%,0%);fill-opacity:1;" d="M 17.402344 7.390625 L 16.023438 7.488281 L 15.867188 6.578125 Z M 17.402344 7.390625 "/>
<path style=" stroke:none;fill-rule:nonzero;fill:rgb(0%,0%,0%);fill-opacity:1;" d="M 17.183594 8.617188 L 16.398438 8.835938 L 16.242188 8.238281 Z M 17.183594 8.617188 "/>
<path style=" stroke:none;fill-rule:nonzero;fill:rgb(0%,0%,0%);fill-opacity:1;" d="M 25.964844 7.707031 L 26.996094 7.863281 L 27.21875 7.171875 Z M 25.964844 7.707031 "/>
<path style=" stroke:none;fill-rule:nonzero;fill:rgb(0%,0%,0%);fill-opacity:1;" d="M 25.742188 8.992188 L 26.527344 9.273438 L 26.714844 8.710938 Z M 25.742188 8.992188 "/>
<path style=" stroke:none;fill-rule:nonzero;fill:rgb(0%,0%,0%);fill-opacity:1;" d="M 15.359375 11.0625 L 18.386719 11.0625 L 18.386719 11.4375 L 15.359375 11.4375 Z M 15.359375 11.0625 "/>
<path style=" stroke:none;fill-rule:nonzero;fill:rgb(0%,0%,0%);fill-opacity:1;" d="M 15.359375 10.167969 L 18.386719 10.167969 L 18.386719 10.539062 L 15.359375 10.539062 Z M 15.359375 10.167969 "/>
<path style=" stroke:none;fill-rule:nonzero;fill:rgb(0%,0%,0%);fill-opacity:1;" d="M 24.601562 11.0625 L 27.628906 11.0625 L 27.628906 11.4375 L 24.601562 11.4375 Z M 24.601562 11.0625 "/>
<path style=" stroke:none;fill-rule:nonzero;fill:rgb(0%,0%,0%);fill-opacity:1;" d="M 24.601562 10.167969 L 27.628906 10.167969 L 27.628906 10.539062 L 24.601562 10.539062 Z M 24.601562 10.167969 "/>
<path style=" stroke:none;fill-rule:nonzero;fill:rgb(0%,0%,0%);fill-opacity:1;" d="M 23.535156 7.949219 L 18.601562 7.949219 L 18.601562 7.613281 L 20.136719 7.613281 C 20.328125 6.804688 20.363281 6.03125 20.136719 5.640625 C 20.039062 5.472656 19.90625 5.394531 19.710938 5.394531 C 18.835938 5.394531 18.472656 6.324219 18.457031 6.363281 L 18.144531 6.246094 C 18.160156 6.195312 18.601562 5.058594 19.710938 5.058594 C 20.023438 5.058594 20.269531 5.203125 20.425781 5.472656 C 20.703125 5.949219 20.671875 6.773438 20.484375 7.613281 L 23.175781 7.613281 C 23.535156 6.5625 24.28125 6.066406 25.53125 6.066406 L 25.53125 6.402344 C 24.175781 6.402344 23.796875 6.976562 23.527344 7.613281 L 24.996094 7.613281 L 24.992188 7.949219 Z M 23.757812 9.613281 L 23.757812 9.613281 M 23.757812 9.613281 L 23.757812 9.613281 "/>
<path style=" stroke:none;fill-rule:nonzero;fill:rgb(0%,0%,0%);fill-opacity:1;" d="M 23.757812 9.613281 C 23.359375 9.023438 23.234375 8.519531 23.398438 7.949219 L 23.058594 7.949219 C 22.9375 8.332031 22.984375 8.90625 23.28125 9.398438 L 19.859375 9.398438 C 20.066406 8.980469 20.257812 8.472656 20.398438 7.949219 L 20.050781 7.949219 C 19.898438 8.503906 19.679688 9.050781 19.433594 9.480469 L 19.351562 9.621094 L 21.273438 10.832031 L 20.191406 11.542969 L 20.378906 11.824219 L 21.585938 11.027344 L 22.890625 11.878906 L 23.070312 11.59375 L 21.859375 10.847656 C 21.859375 10.847656 23.667969 9.671875 23.757812 9.613281 Z M 21.582031 10.628906 L 20.160156 9.734375 L 22.9375 9.734375 Z M 21.582031 10.628906 "/>
<path style=" stroke:none;fill-rule:nonzero;fill:rgb(0%,0%,0%);fill-opacity:1;" d="M 27.753906 4.378906 C 27.75 3.792969 27.570312 1.324219 27.234375 0.640625 C 26.328125 0.988281 24.675781 2.105469 24.300781 3.246094 C 22.511719 2.980469 20.492188 3.011719 18.722656 3.316406 C 18.425781 2.085938 16.945312 1.148438 15.824219 0.617188 C 15.351562 1.414062 15.144531 3.261719 15.199219 4.570312 C 15.195312 4.570312 15.191406 4.574219 15.191406 4.574219 C 15.398438 10.074219 18.097656 13.5 21.625 15.574219 C 25.253906 13.5 27.847656 9.457031 27.75 4.375 C 27.75 4.375 27.75 4.378906 27.753906 4.378906 Z M 24.734375 3.316406 C 24.746094 3.320312 24.757812 3.324219 24.773438 3.324219 C 24.757812 3.324219 24.746094 3.320312 24.734375 3.316406 Z M 24.507812 3.277344 C 24.539062 3.285156 24.570312 3.289062 24.601562 3.296875 C 24.570312 3.289062 24.539062 3.285156 24.507812 3.277344 Z M 27.1875 4.773438 C 27.28125 9.351562 24.945312 12.996094 21.675781 14.863281 C 16.128906 12.097656 15.082031 5.09375 16.03125 1.335938 C 16.292969 2.773438 16.769531 3.675781 17.804688 4.117188 C 20.058594 3.472656 23.160156 3.421875 25.441406 4.050781 C 26.394531 3.359375 26.761719 2.300781 26.964844 1.378906 C 27.21875 2.453125 27.1875 4.773438 27.1875 4.773438 Z M 29.554688 20.609375 L 29.554688 20.609375 "/>
<path style=" stroke:none;fill-rule:nonzero;fill:rgb(0%,0%,0%);fill-opacity:1;" d="M 29.554688 20.609375 C 28.984375 19.972656 27.871094 19.671875 26.9375 19.691406 C 26.277344 18.90625 22.4375 14.867188 22.4375 14.867188 L 22.171875 15.199219 L 26.804688 20.1875 L 27.003906 20.167969 C 28.265625 20.0625 28.980469 20.742188 29.167969 20.957031 C 29.308594 21.109375 29.390625 21.253906 29.4375 21.363281 L 26.890625 21.363281 C 21.054688 18.316406 15.925781 16.167969 10.480469 15.699219 C 10.496094 14.941406 10.628906 14.085938 10.886719 13.128906 L 10.386719 12.992188 C 10.121094 13.976562 9.980469 14.867188 9.964844 15.660156 C 9.398438 15.625 8.828125 15.605469 8.25 15.605469 C 7.761719 15.605469 7.316406 15.648438 6.910156 15.726562 C 6.382812 15.199219 5.929688 14.695312 5.546875 14.214844 C 8.078125 11.582031 12.253906 9.199219 15.871094 8.324219 L 15.753906 7.816406 C 11.859375 8.757812 7.59375 11.316406 5.214844 13.785156 C 4.113281 12.296875 3.675781 11.074219 3.546875 10.148438 C 3.382812 8.980469 3.660156 7.910156 4.351562 7.046875 C 5.4375 5.703125 6.976562 5.605469 8.558594 5.875 C 8.527344 6.125 8.5625 6.363281 8.660156 6.511719 C 9.078125 7.128906 11.328125 7.347656 12.671875 6.746094 C 11.683594 5.359375 9.675781 4.679688 9.117188 4.953125 C 8.933594 5.042969 8.792969 5.207031 8.699219 5.398438 C 8.152344 5.300781 7.609375 5.230469 7.210938 5.230469 C 5.816406 5.242188 4.746094 5.730469 3.949219 6.722656 C 3.164062 7.699219 2.847656 8.90625 3.03125 10.222656 C 3.207031 11.46875 3.824219 12.792969 4.855469 14.167969 C 4.683594 14.351562 4.519531 14.53125 4.359375 14.710938 C 1.839844 17.527344 0 20.550781 0 21.050781 L 0 21.3125 L 3.320312 21.3125 L 3.265625 21.003906 C 3.074219 20.011719 3.449219 18.773438 4.21875 17.847656 C 4.699219 17.265625 5.5 16.601562 6.75 16.292969 C 7.867188 17.382812 9.285156 18.535156 10.867188 19.652344 L 13.335938 19.652344 L 13.335938 19.390625 C 13.335938 19.097656 13.191406 18.84375 12.925781 18.671875 C 12.535156 18.414062 11.933594 18.378906 11.382812 18.570312 C 10.855469 17.980469 10.558594 17.195312 10.496094 16.222656 C 15.851562 16.695312 20.980469 18.859375 26.761719 21.882812 L 29.945312 21.882812 L 29.988281 21.671875 C 30.046875 21.375 29.882812 20.980469 29.554688 20.609375 Z M 3.820312 17.515625 C 3.035156 18.464844 2.617188 19.714844 2.710938 20.792969 L 0.621094 20.792969 C 1.039062 19.882812 2.714844 17.25 5.191406 14.59375 C 5.53125 15.015625 5.910156 15.441406 6.328125 15.871094 C 5.113281 16.234375 4.316406 16.914062 3.820312 17.515625 Z M 3.820312 17.515625 "/>
<path style=" stroke:none;fill-rule:nonzero;fill:rgb(0%,0%,0%);fill-opacity:1;" d="M 2.839844 23.160156 L 2.839844 23.792969 L 4.429688 23.792969 L 4.429688 28.292969 L 5.128906 28.292969 L 5.128906 23.792969 L 6.71875 23.792969 L 6.71875 23.160156 Z M 25.613281 23.546875 L 25.367188 24.363281 L 24.816406 24.605469 L 24.816406 24.972656 L 25.355469 24.972656 L 25.355469 27.15625 C 25.355469 27.546875 25.449219 27.851562 25.644531 28.058594 C 25.839844 28.261719 26.132812 28.363281 26.503906 28.363281 C 26.605469 28.363281 26.714844 28.351562 26.835938 28.332031 C 26.960938 28.3125 27.054688 28.285156 27.128906 28.253906 L 27.160156 28.238281 L 27.160156 27.691406 L 27.085938 27.710938 C 27.035156 27.726562 26.964844 27.742188 26.871094 27.757812 C 26.78125 27.769531 26.683594 27.777344 26.585938 27.777344 C 26.410156 27.777344 26.285156 27.722656 26.1875 27.613281 C 26.089844 27.507812 26.039062 27.347656 26.039062 27.132812 L 26.039062 24.972656 L 27.132812 24.972656 L 27.132812 24.417969 L 26.039062 24.417969 L 26.039062 23.546875 Z M 8.855469 24.347656 C 8.296875 24.347656 7.851562 24.527344 7.535156 24.882812 C 7.21875 25.238281 7.0625 25.730469 7.0625 26.351562 C 7.0625 26.753906 7.132812 27.109375 7.28125 27.414062 C 7.425781 27.71875 7.636719 27.953125 7.90625 28.117188 C 8.175781 28.28125 8.484375 28.363281 8.832031 28.363281 C 9.386719 28.363281 9.832031 28.183594 10.152344 27.828125 C 10.472656 27.46875 10.632812 26.976562 10.632812 26.351562 C 10.632812 25.746094 10.472656 25.253906 10.148438 24.894531 C 9.832031 24.53125 9.394531 24.347656 8.855469 24.347656 Z M 13.265625 24.347656 C 13.015625 24.347656 12.785156 24.402344 12.582031 24.511719 C 12.40625 24.601562 12.273438 24.730469 12.164062 24.886719 L 12.082031 24.417969 L 11.515625 24.417969 L 11.515625 28.292969 L 12.195312 28.292969 L 12.195312 26.261719 C 12.195312 25.78125 12.28125 25.445312 12.433594 25.246094 C 12.585938 25.046875 12.828125 24.945312 13.171875 24.945312 C 13.4375 24.945312 13.617188 25.015625 13.730469 25.152344 C 13.847656 25.289062 13.910156 25.496094 13.910156 25.789062 L 13.910156 28.292969 L 14.59375 28.292969 L 14.59375 26.136719 C 14.59375 25.71875 14.675781 25.421875 14.835938 25.230469 C 14.992188 25.042969 15.234375 24.945312 15.578125 24.945312 C 15.835938 24.945312 16.015625 25.015625 16.132812 25.152344 C 16.246094 25.289062 16.308594 25.496094 16.308594 25.789062 L 16.308594 28.292969 L 16.992188 28.292969 L 16.992188 25.78125 C 16.992188 25.292969 16.886719 24.929688 16.65625 24.695312 C 16.433594 24.460938 16.097656 24.347656 15.664062 24.347656 C 15.382812 24.347656 15.128906 24.410156 14.910156 24.527344 C 14.707031 24.636719 14.554688 24.785156 14.4375 24.964844 C 14.238281 24.5625 13.839844 24.347656 13.265625 24.347656 Z M 19.648438 24.347656 C 19.078125 24.347656 18.625 24.527344 18.308594 24.882812 C 17.996094 25.238281 17.839844 25.742188 17.839844 26.378906 C 17.839844 27.003906 17.992188 27.492188 18.300781 27.84375 C 18.613281 28.1875 19.054688 28.363281 19.609375 28.363281 C 20 28.363281 20.324219 28.296875 20.589844 28.160156 L 20.617188 28.144531 L 20.617188 27.519531 L 20.539062 27.554688 C 20.21875 27.6875 19.902344 27.75 19.597656 27.75 C 19.242188 27.75 18.988281 27.636719 18.8125 27.402344 C 18.636719 27.167969 18.546875 26.828125 18.546875 26.371094 C 18.546875 25.894531 18.640625 25.539062 18.820312 25.3125 C 19 25.082031 19.265625 24.96875 19.636719 24.96875 C 19.742188 24.96875 19.871094 24.984375 20.015625 25.015625 L 20.019531 25.015625 C 20.164062 25.046875 20.296875 25.089844 20.421875 25.136719 L 20.476562 25.160156 L 20.6875 24.574219 L 20.644531 24.550781 C 20.53125 24.496094 20.386719 24.449219 20.203125 24.410156 C 20.019531 24.367188 19.832031 24.347656 19.648438 24.347656 Z M 22.871094 24.355469 C 22.644531 24.355469 22.417969 24.386719 22.191406 24.445312 C 21.96875 24.5 21.761719 24.582031 21.570312 24.683594 L 21.527344 24.710938 L 21.742188 25.25 L 21.796875 25.222656 C 22.1875 25.03125 22.535156 24.9375 22.839844 24.9375 C 23.109375 24.9375 23.292969 25.007812 23.402344 25.132812 C 23.519531 25.257812 23.582031 25.460938 23.582031 25.75 L 23.582031 25.925781 L 22.996094 25.945312 C 22.382812 25.964844 21.917969 26.074219 21.601562 26.28125 C 21.285156 26.488281 21.121094 26.800781 21.121094 27.195312 C 21.121094 27.5625 21.230469 27.855469 21.453125 28.058594 C 21.679688 28.261719 21.988281 28.363281 22.371094 28.363281 C 22.65625 28.363281 22.894531 28.320312 23.089844 28.234375 C 23.273438 28.152344 23.445312 28 23.621094 27.792969 L 23.726562 28.292969 L 24.25 28.292969 L 24.25 25.667969 C 24.25 25.21875 24.140625 24.882812 23.90625 24.667969 C 23.675781 24.457031 23.328125 24.355469 22.871094 24.355469 Z M 8.835938 24.945312 C 9.203125 24.945312 9.464844 25.0625 9.648438 25.296875 L 9.648438 25.300781 C 9.832031 25.53125 9.925781 25.882812 9.925781 26.351562 C 9.925781 26.828125 9.832031 27.183594 9.648438 27.417969 C 9.464844 27.65625 9.203125 27.773438 8.84375 27.773438 C 8.484375 27.773438 8.222656 27.65625 8.042969 27.417969 C 7.859375 27.179688 7.765625 26.824219 7.765625 26.351562 C 7.765625 25.875 7.859375 25.523438 8.039062 25.292969 C 8.214844 25.0625 8.476562 24.945312 8.835938 24.945312 Z M 23.566406 26.445312 L 23.566406 26.726562 C 23.566406 27.066406 23.472656 27.320312 23.28125 27.503906 C 23.089844 27.6875 22.828125 27.777344 22.484375 27.777344 C 22.269531 27.777344 22.109375 27.726562 21.996094 27.632812 C 21.886719 27.535156 21.832031 27.398438 21.832031 27.203125 C 21.832031 26.953125 21.917969 26.785156 22.101562 26.671875 C 22.289062 26.554688 22.609375 26.484375 23.058594 26.46875 Z M 23.566406 26.445312 "/>
</g>
</svg>
