<?xml version="1.0" encoding="UTF-8"?>
<svg xmlns="http://www.w3.org/2000/svg" xmlns:xlink="http://www.w3.org/1999/xlink" width="30px" height="30px" viewBox="0 0 30 30" version="1.1">
<g id="surface1">
<rect x="0" y="0" width="30" height="30" style="fill:rgb(100%,100%,100%);fill-opacity:1;stroke:none;"/>
<path style=" stroke:none;fill-rule:evenodd;fill:rgb(36.078431%,28.235294%,20.784314%);fill-opacity:1;" d="M 10.8125 16.589844 C 10.730469 16.804688 10.644531 16.9375 10.359375 16.9375 C 10.078125 16.9375 9.992188 16.804688 9.910156 16.589844 L 9.070312 14.429688 C 9.03125 14.328125 9.019531 14.261719 9.019531 14.1875 C 9.019531 13.917969 9.226562 13.78125 9.453125 13.78125 C 9.683594 13.78125 9.78125 13.949219 9.824219 14.078125 L 10.355469 15.726562 L 10.367188 15.726562 L 10.898438 14.078125 C 10.9375 13.949219 11.039062 13.78125 11.269531 13.78125 L 12.085938 13.78125 C 12.300781 13.78125 12.4375 13.898438 12.46875 14.101562 C 12.671875 13.878906 12.941406 13.75 13.25 13.75 C 13.597656 13.75 13.890625 13.898438 14.113281 14.175781 C 14.34375 13.90625 14.710938 13.75 14.996094 13.75 C 15.675781 13.75 16.136719 14.144531 16.136719 14.875 L 16.136719 16.476562 C 16.136719 16.753906 15.960938 16.9375 15.722656 16.9375 C 15.476562 16.9375 15.304688 16.753906 15.304688 16.476562 L 15.304688 15.019531 C 15.304688 14.683594 15.117188 14.445312 14.816406 14.445312 C 14.507812 14.445312 14.320312 14.683594 14.320312 15.019531 L 14.320312 16.476562 C 14.320312 16.753906 14.144531 16.9375 13.90625 16.9375 C 13.660156 16.9375 13.488281 16.753906 13.488281 16.476562 L 13.488281 15.019531 C 13.488281 14.683594 13.300781 14.445312 13 14.445312 C 12.65625 14.445312 12.503906 14.683594 12.503906 15.019531 L 12.503906 16.476562 C 12.503906 16.753906 12.328125 16.9375 12.085938 16.9375 C 11.84375 16.9375 11.671875 16.753906 11.671875 16.476562 L 11.671875 14.394531 Z M 16.421875 14.203125 C 16.398438 14.128906 16.378906 14.058594 16.378906 14.007812 C 16.378906 13.910156 16.449219 13.78125 16.625 13.78125 C 16.734375 13.78125 16.839844 13.820312 16.90625 14.042969 L 17.5625 16.152344 L 17.574219 16.152344 L 18.214844 14.117188 C 18.285156 13.898438 18.332031 13.78125 18.519531 13.78125 C 18.703125 13.78125 18.75 13.898438 18.820312 14.117188 L 19.460938 16.152344 L 19.472656 16.152344 L 20.128906 14.042969 C 20.199219 13.820312 20.300781 13.78125 20.410156 13.78125 C 20.585938 13.78125 20.652344 13.910156 20.652344 14.007812 C 20.652344 14.058594 20.636719 14.128906 20.613281 14.203125 L 19.769531 16.671875 C 19.699219 16.867188 19.617188 16.9375 19.472656 16.9375 C 19.332031 16.9375 19.246094 16.867188 19.183594 16.671875 L 18.523438 14.585938 L 18.511719 14.585938 L 17.851562 16.671875 C 17.789062 16.867188 17.703125 16.9375 17.5625 16.9375 C 17.417969 16.9375 17.339844 16.867188 17.269531 16.671875 Z M 21.378906 15.359375 C 21.378906 14.835938 21.597656 14.21875 22.222656 14.21875 C 22.851562 14.21875 23.070312 14.835938 23.070312 15.359375 C 23.070312 15.882812 22.851562 16.5 22.222656 16.5 C 21.597656 16.5 21.378906 15.882812 21.378906 15.359375 Z M 23.550781 14.027344 C 23.550781 13.851562 23.410156 13.78125 23.3125 13.78125 C 23.207031 13.78125 23.078125 13.851562 23.078125 14.027344 L 23.078125 14.1875 L 23.0625 14.1875 C 22.828125 13.929688 22.578125 13.78125 22.222656 13.78125 C 21.355469 13.78125 20.867188 14.539062 20.867188 15.359375 C 20.867188 16.179688 21.355469 16.9375 22.222656 16.9375 C 22.554688 16.9375 22.84375 16.789062 23.0625 16.476562 L 23.078125 16.476562 L 23.078125 16.691406 C 23.078125 16.871094 23.207031 16.9375 23.3125 16.9375 C 23.410156 16.9375 23.550781 16.871094 23.550781 16.691406 Z M 24.222656 14.054688 C 24.222656 13.886719 24.320312 13.78125 24.476562 13.78125 C 24.632812 13.78125 24.730469 13.886719 24.730469 14.054688 L 24.730469 14.316406 L 24.742188 14.316406 C 24.859375 14.078125 25.144531 13.78125 25.4375 13.78125 C 25.617188 13.78125 25.722656 13.898438 25.722656 14.042969 C 25.722656 14.1875 25.617188 14.28125 25.402344 14.320312 C 25.101562 14.375 24.730469 14.597656 24.730469 15.195312 L 24.730469 16.667969 C 24.730469 16.835938 24.632812 16.9375 24.476562 16.9375 C 24.320312 16.9375 24.222656 16.835938 24.222656 16.667969 Z M 26.371094 15.175781 C 26.386719 14.703125 26.613281 14.195312 27.246094 14.21875 C 27.808594 14.21875 28.0625 14.730469 28.0625 15.175781 Z M 28.289062 15.558594 C 28.507812 15.558594 28.574219 15.464844 28.574219 15.285156 C 28.574219 14.539062 28.085938 13.78125 27.246094 13.78125 C 26.382812 13.78125 25.859375 14.519531 25.859375 15.363281 C 25.859375 16.183594 26.289062 16.9375 27.273438 16.9375 C 27.875 16.9375 28.507812 16.558594 28.507812 16.308594 C 28.507812 16.164062 28.417969 16.082031 28.324219 16.082031 C 28.132812 16.082031 27.957031 16.5 27.28125 16.5 C 26.707031 16.5 26.371094 16.089844 26.371094 15.558594 Z M 28.289062 15.558594 "/>
<path style=" stroke:none;fill-rule:evenodd;fill:rgb(41.176471%,55.294118%,72.941176%);fill-opacity:1;" d="M 2.027344 11.585938 C 1.753906 11.585938 1.53125 11.804688 1.53125 12.078125 L 1.53125 15.734375 C 1.53125 16.007812 1.753906 16.230469 2.027344 16.230469 L 5.683594 16.230469 C 5.957031 16.230469 6.179688 16.007812 6.179688 15.734375 L 6.179688 12.078125 C 6.179688 11.804688 5.957031 11.585938 5.683594 11.585938 Z M 1.808594 15.734375 L 1.808594 12.078125 C 1.808594 12.023438 1.832031 11.964844 1.875 11.925781 C 1.914062 11.886719 1.96875 11.863281 2.027344 11.863281 L 5.683594 11.863281 C 5.804688 11.863281 5.902344 11.960938 5.902344 12.078125 L 5.902344 15.734375 C 5.902344 15.855469 5.804688 15.953125 5.683594 15.953125 L 2.027344 15.953125 C 1.90625 15.953125 1.808594 15.855469 1.808594 15.734375 Z M 1.808594 15.734375 "/>
<path style=" stroke:none;fill-rule:evenodd;fill:rgb(41.176471%,55.294118%,72.941176%);fill-opacity:1;" d="M 3.117188 12.679688 C 2.847656 12.679688 2.625 12.898438 2.625 13.171875 L 2.625 16.828125 C 2.625 17.101562 2.847656 17.320312 3.117188 17.324219 L 6.777344 17.324219 C 7.046875 17.324219 7.269531 17.101562 7.269531 16.828125 L 7.269531 13.171875 C 7.269531 12.898438 7.046875 12.679688 6.777344 12.679688 Z M 2.902344 16.828125 L 2.902344 13.171875 C 2.902344 13.050781 3 12.953125 3.117188 12.957031 L 6.777344 12.957031 C 6.894531 12.957031 6.992188 13.050781 6.992188 13.171875 L 6.992188 16.828125 C 6.992188 16.949219 6.894531 17.046875 6.777344 17.046875 L 3.117188 17.046875 C 3 17.046875 2.902344 16.949219 2.902344 16.828125 Z M 2.902344 16.828125 "/>
<path style=" stroke:none;fill-rule:evenodd;fill:rgb(41.176471%,55.294118%,72.941176%);fill-opacity:1;" d="M 0.933594 13.769531 C 0.664062 13.769531 0.441406 13.992188 0.441406 14.265625 L 0.441406 17.921875 C 0.441406 18.050781 0.492188 18.179688 0.585938 18.269531 C 0.679688 18.363281 0.804688 18.414062 0.933594 18.414062 L 4.59375 18.414062 C 4.863281 18.414062 5.085938 18.195312 5.085938 17.921875 L 5.085938 14.265625 C 5.085938 13.992188 4.863281 13.769531 4.59375 13.769531 Z M 0.71875 17.921875 L 0.71875 14.265625 C 0.71875 14.144531 0.816406 14.046875 0.933594 14.046875 L 4.59375 14.046875 C 4.710938 14.046875 4.808594 14.144531 4.808594 14.265625 L 4.808594 17.921875 C 4.808594 18.039062 4.710938 18.136719 4.59375 18.136719 L 0.933594 18.136719 C 0.816406 18.136719 0.71875 18.042969 0.71875 17.921875 Z M 0.71875 17.921875 "/>
<path style=" stroke:none;fill-rule:evenodd;fill:rgb(36.078431%,28.235294%,20.784314%);fill-opacity:1;" d="M 28.964844 13.832031 L 28.964844 13.902344 L 28.804688 13.902344 L 28.804688 14.363281 L 28.726562 14.363281 L 28.726562 13.902344 L 28.566406 13.902344 L 28.566406 13.832031 Z M 29.480469 14.363281 L 29.457031 14.046875 C 29.453125 14.003906 29.457031 13.953125 29.457031 13.898438 L 29.453125 13.898438 C 29.4375 13.949219 29.421875 14.007812 29.40625 14.050781 L 29.296875 14.355469 L 29.234375 14.355469 L 29.128906 14.046875 C 29.117188 14 29.101562 13.949219 29.089844 13.898438 L 29.085938 13.898438 C 29.085938 13.949219 29.085938 13.996094 29.082031 14.042969 L 29.0625 14.363281 L 28.988281 14.363281 L 29.027344 13.832031 L 29.132812 13.832031 L 29.234375 14.117188 C 29.25 14.160156 29.261719 14.203125 29.273438 14.253906 L 29.277344 14.253906 C 29.289062 14.203125 29.300781 14.15625 29.3125 14.117188 L 29.414062 13.832031 L 29.519531 13.832031 L 29.558594 14.363281 Z M 29.480469 14.363281 "/>
</g>
</svg>
